<!--
  icons.svg — Najm Al-Rimal Icon Sprite
  Source: Figma file MVxEmcSyJeOoh65Lnp9Cdw (Icons - Platforms Code Community)
  Style: Stroke, Rounded, 24×24 viewBox
  Usage: Include once at top of <body> (hidden), then reference with <use>

  Example:
    <svg class="icon icon-md icon-brand" aria-hidden="true">
      <use href="./assets/icons/icons.svg#icon-cart"></use>
    </svg>

  With accessible label:
    <span class="icon-label">
      <svg class="icon icon-sm icon-default" aria-hidden="true">
        <use href="./assets/icons/icons.svg#icon-search"></use>
      </svg>
      <span>بحث</span>
    </span>
-->
<svg xmlns="http://www.w3.org/2000/svg" style="display:none">

  <!-- ── Navigation & UI ────────────────────────────────────────────────── -->

  <symbol id="icon-home" viewBox="0 0 24 24" fill="none">
    <path d="M3 9.5L12 3l9 6.5V20a1 1 0 0 1-1 1H4a1 1 0 0 1-1-1V9.5z" stroke="currentColor" stroke-width="1.5" stroke-linecap="round" stroke-linejoin="round"/>
    <path d="M9 21V12h6v9" stroke="currentColor" stroke-width="1.5" stroke-linecap="round" stroke-linejoin="round"/>
  </symbol>

  <symbol id="icon-menu" viewBox="0 0 24 24" fill="none">
    <path d="M3 6h18M3 12h18M3 18h18" stroke="currentColor" stroke-width="1.5" stroke-linecap="round"/>
  </symbol>

  <symbol id="icon-close" viewBox="0 0 24 24" fill="none">
    <path d="M18 6L6 18M6 6l12 12" stroke="currentColor" stroke-width="1.5" stroke-linecap="round"/>
  </symbol>

  <symbol id="icon-search" viewBox="0 0 24 24" fill="none">
    <circle cx="11" cy="11" r="7" stroke="currentColor" stroke-width="1.5"/>
    <path d="M16.5 16.5L21 21" stroke="currentColor" stroke-width="1.5" stroke-linecap="round"/>
  </symbol>

  <symbol id="icon-chevron-right" viewBox="0 0 24 24" fill="none">
    <path d="M9 6l6 6-6 6" stroke="currentColor" stroke-width="1.5" stroke-linecap="round" stroke-linejoin="round"/>
  </symbol>

  <symbol id="icon-chevron-left" viewBox="0 0 24 24" fill="none">
    <path d="M15 6l-6 6 6 6" stroke="currentColor" stroke-width="1.5" stroke-linecap="round" stroke-linejoin="round"/>
  </symbol>

  <symbol id="icon-chevron-down" viewBox="0 0 24 24" fill="none">
    <path d="M6 9l6 6 6-6" stroke="currentColor" stroke-width="1.5" stroke-linecap="round" stroke-linejoin="round"/>
  </symbol>

  <symbol id="icon-chevron-up" viewBox="0 0 24 24" fill="none">
    <path d="M18 15l-6-6-6 6" stroke="currentColor" stroke-width="1.5" stroke-linecap="round" stroke-linejoin="round"/>
  </symbol>

  <symbol id="icon-arrow-right" viewBox="0 0 24 24" fill="none">
    <path d="M5 12h14M13 6l6 6-6 6" stroke="currentColor" stroke-width="1.5" stroke-linecap="round" stroke-linejoin="round"/>
  </symbol>

  <symbol id="icon-arrow-left" viewBox="0 0 24 24" fill="none">
    <path d="M19 12H5M11 18l-6-6 6-6" stroke="currentColor" stroke-width="1.5" stroke-linecap="round" stroke-linejoin="round"/>
  </symbol>

  <symbol id="icon-external-link" viewBox="0 0 24 24" fill="none">
    <path d="M18 13v6a2 2 0 0 1-2 2H5a2 2 0 0 1-2-2V8a2 2 0 0 1 2-2h6" stroke="currentColor" stroke-width="1.5" stroke-linecap="round" stroke-linejoin="round"/>
    <path d="M15 3h6v6M10 14L21 3" stroke="currentColor" stroke-width="1.5" stroke-linecap="round" stroke-linejoin="round"/>
  </symbol>

  <!-- ── Shopping & Commerce ────────────────────────────────────────────── -->

  <symbol id="icon-cart" viewBox="0 0 24 24" fill="none">
    <path d="M6 2L3 6v14a2 2 0 0 0 2 2h14a2 2 0 0 0 2-2V6l-3-4z" stroke="currentColor" stroke-width="1.5" stroke-linecap="round" stroke-linejoin="round"/>
    <path d="M3 6h18M16 10a4 4 0 0 1-8 0" stroke="currentColor" stroke-width="1.5" stroke-linecap="round" stroke-linejoin="round"/>
  </symbol>

  <symbol id="icon-bag" viewBox="0 0 24 24" fill="none">
    <path d="M6 2L3 6v14a2 2 0 0 0 2 2h14a2 2 0 0 0 2-2V6l-3-4H6z" stroke="currentColor" stroke-width="1.5" stroke-linecap="round" stroke-linejoin="round"/>
    <path d="M16 10a4 4 0 0 1-8 0" stroke="currentColor" stroke-width="1.5" stroke-linecap="round" stroke-linejoin="round"/>
  </symbol>

  <symbol id="icon-tag" viewBox="0 0 24 24" fill="none">
    <path d="M20.59 13.41l-7.17 7.17a2 2 0 0 1-2.83 0L2 12V2h10l8.59 8.59a2 2 0 0 1 0 2.82z" stroke="currentColor" stroke-width="1.5" stroke-linecap="round" stroke-linejoin="round"/>
    <circle cx="7" cy="7" r="1.5" fill="currentColor"/>
  </symbol>

  <symbol id="icon-wallet" viewBox="0 0 24 24" fill="none">
    <rect x="2" y="5" width="20" height="14" rx="2" stroke="currentColor" stroke-width="1.5"/>
    <path d="M16 12a1 1 0 1 1 2 0 1 1 0 0 1-2 0z" fill="currentColor"/>
    <path d="M2 9h20" stroke="currentColor" stroke-width="1.5"/>
  </symbol>

  <symbol id="icon-credit-card" viewBox="0 0 24 24" fill="none">
    <rect x="2" y="5" width="20" height="14" rx="2" stroke="currentColor" stroke-width="1.5"/>
    <path d="M2 10h20" stroke="currentColor" stroke-width="1.5"/>
    <path d="M6 15h4" stroke="currentColor" stroke-width="1.5" stroke-linecap="round"/>
  </symbol>

  <symbol id="icon-discount" viewBox="0 0 24 24" fill="none">
    <circle cx="12" cy="12" r="9" stroke="currentColor" stroke-width="1.5"/>
    <path d="M15 9l-6 6M9 9.5a.5.5 0 1 1 1 0 .5.5 0 0 1-1 0zM14 14.5a.5.5 0 1 1 1 0 .5.5 0 0 1-1 0z" stroke="currentColor" stroke-width="1.5" stroke-linecap="round"/>
  </symbol>

  <symbol id="icon-gift" viewBox="0 0 24 24" fill="none">
    <rect x="3" y="8" width="18" height="4" rx="1" stroke="currentColor" stroke-width="1.5"/>
    <path d="M21 12v9a1 1 0 0 1-1 1H4a1 1 0 0 1-1-1v-9" stroke="currentColor" stroke-width="1.5" stroke-linecap="round"/>
    <path d="M12 8v13M8 8c0-2 4-4 4-4s4 2 4 4" stroke="currentColor" stroke-width="1.5" stroke-linecap="round" stroke-linejoin="round"/>
  </symbol>

  <!-- ── Auto Parts Specific ────────────────────────────────────────────── -->

  <symbol id="icon-car" viewBox="0 0 24 24" fill="none">
    <path d="M5 17H3a2 2 0 0 1-2-2v-4l2-5h14l2 5v4a2 2 0 0 1-2 2h-2" stroke="currentColor" stroke-width="1.5" stroke-linecap="round" stroke-linejoin="round"/>
    <circle cx="7.5" cy="17.5" r="2.5" stroke="currentColor" stroke-width="1.5"/>
    <circle cx="16.5" cy="17.5" r="2.5" stroke="currentColor" stroke-width="1.5"/>
    <path d="M5 9h10M3 13h18" stroke="currentColor" stroke-width="1.5" stroke-linecap="round"/>
  </symbol>

  <symbol id="icon-wrench" viewBox="0 0 24 24" fill="none">
    <path d="M14.7 6.3a1 1 0 0 0 0 1.4l1.6 1.6a1 1 0 0 0 1.4 0l3.77-3.77a6 6 0 0 1-7.94 7.94l-6.91 6.91a2.12 2.12 0 0 1-3-3l6.91-6.91a6 6 0 0 1 7.94-7.94l-3.76 3.76z" stroke="currentColor" stroke-width="1.5" stroke-linecap="round" stroke-linejoin="round"/>
  </symbol>

  <symbol id="icon-settings" viewBox="0 0 24 24" fill="none">
    <circle cx="12" cy="12" r="3" stroke="currentColor" stroke-width="1.5"/>
    <path d="M19.4 15a1.65 1.65 0 0 0 .33 1.82l.06.06a2 2 0 0 1-2.83 2.83l-.06-.06a1.65 1.65 0 0 0-1.82-.33 1.65 1.65 0 0 0-1 1.51V21a2 2 0 0 1-4 0v-.09A1.65 1.65 0 0 0 9 19.4a1.65 1.65 0 0 0-1.82.33l-.06.06a2 2 0 0 1-2.83-2.83l.06-.06A1.65 1.65 0 0 0 4.68 15a1.65 1.65 0 0 0-1.51-1H3a2 2 0 0 1 0-4h.09A1.65 1.65 0 0 0 4.6 9a1.65 1.65 0 0 0-.33-1.82l-.06-.06a2 2 0 0 1 2.83-2.83l.06.06A1.65 1.65 0 0 0 9 4.68a1.65 1.65 0 0 0 1-1.51V3a2 2 0 0 1 4 0v.09a1.65 1.65 0 0 0 1 1.51 1.65 1.65 0 0 0 1.82-.33l.06-.06a2 2 0 0 1 2.83 2.83l-.06.06A1.65 1.65 0 0 0 19.4 9a1.65 1.65 0 0 0 1.51 1H21a2 2 0 0 1 0 4h-.09a1.65 1.65 0 0 0-1.51 1z" stroke="currentColor" stroke-width="1.5" stroke-linecap="round" stroke-linejoin="round"/>
  </symbol>

  <symbol id="icon-engine" viewBox="0 0 24 24" fill="none">
    <rect x="3" y="8" width="13" height="10" rx="1" stroke="currentColor" stroke-width="1.5"/>
    <path d="M16 10h3l2 2v2l-2 2h-3" stroke="currentColor" stroke-width="1.5" stroke-linecap="round" stroke-linejoin="round"/>
    <path d="M7 8V5M11 8V5M3 13h-1M3 11H1" stroke="currentColor" stroke-width="1.5" stroke-linecap="round"/>
  </symbol>

  <!-- ── User & Account ─────────────────────────────────────────────────── -->

  <symbol id="icon-user" viewBox="0 0 24 24" fill="none">
    <circle cx="12" cy="8" r="4" stroke="currentColor" stroke-width="1.5"/>
    <path d="M4 20c0-4 3.6-7 8-7s8 3 8 7" stroke="currentColor" stroke-width="1.5" stroke-linecap="round"/>
  </symbol>

  <symbol id="icon-users" viewBox="0 0 24 24" fill="none">
    <circle cx="9" cy="8" r="3.5" stroke="currentColor" stroke-width="1.5"/>
    <path d="M2 20c0-3.5 3.1-6 7-6s7 2.5 7 6" stroke="currentColor" stroke-width="1.5" stroke-linecap="round"/>
    <path d="M16 3.13a4 4 0 0 1 0 7.75M22 20c0-3.5-2.5-6-6-6" stroke="currentColor" stroke-width="1.5" stroke-linecap="round"/>
  </symbol>

  <symbol id="icon-logout" viewBox="0 0 24 24" fill="none">
    <path d="M9 21H5a2 2 0 0 1-2-2V5a2 2 0 0 1 2-2h4" stroke="currentColor" stroke-width="1.5" stroke-linecap="round" stroke-linejoin="round"/>
    <path d="M16 17l5-5-5-5M21 12H9" stroke="currentColor" stroke-width="1.5" stroke-linecap="round" stroke-linejoin="round"/>
  </symbol>

  <symbol id="icon-login" viewBox="0 0 24 24" fill="none">
    <path d="M15 3h4a2 2 0 0 1 2 2v14a2 2 0 0 1-2 2h-4" stroke="currentColor" stroke-width="1.5" stroke-linecap="round" stroke-linejoin="round"/>
    <path d="M10 17l5-5-5-5M15 12H3" stroke="currentColor" stroke-width="1.5" stroke-linecap="round" stroke-linejoin="round"/>
  </symbol>

  <!-- ── Ratings & Reviews ──────────────────────────────────────────────── -->

  <symbol id="icon-star" viewBox="0 0 24 24" fill="none">
    <path d="M12 2l3.09 6.26L22 9.27l-5 4.87 1.18 6.88L12 17.77l-6.18 3.25L7 14.14 2 9.27l6.91-1.01L12 2z" stroke="currentColor" stroke-width="1.5" stroke-linecap="round" stroke-linejoin="round"/>
  </symbol>

  <symbol id="icon-star-filled" viewBox="0 0 24 24" fill="currentColor">
    <path d="M12 2l3.09 6.26L22 9.27l-5 4.87 1.18 6.88L12 17.77l-6.18 3.25L7 14.14 2 9.27l6.91-1.01L12 2z"/>
  </symbol>

  <symbol id="icon-heart" viewBox="0 0 24 24" fill="none">
    <path d="M20.84 4.61a5.5 5.5 0 0 0-7.78 0L12 5.67l-1.06-1.06a5.5 5.5 0 0 0-7.78 7.78l1.06 1.06L12 21.23l7.78-7.78 1.06-1.06a5.5 5.5 0 0 0 0-7.78z" stroke="currentColor" stroke-width="1.5" stroke-linecap="round" stroke-linejoin="round"/>
  </symbol>

  <symbol id="icon-thumbs-up" viewBox="0 0 24 24" fill="none">
    <path d="M14 9V5a3 3 0 0 0-3-3l-4 9v11h11.28a2 2 0 0 0 2-1.7l1.38-9a2 2 0 0 0-2-2.3H14z" stroke="currentColor" stroke-width="1.5" stroke-linecap="round" stroke-linejoin="round"/>
    <path d="M7 22H4a2 2 0 0 1-2-2v-7a2 2 0 0 1 2-2h3" stroke="currentColor" stroke-width="1.5" stroke-linecap="round" stroke-linejoin="round"/>
  </symbol>

  <!-- ── Order & Delivery ───────────────────────────────────────────────── -->

  <symbol id="icon-package" viewBox="0 0 24 24" fill="none">
    <path d="M16.5 9.4L7.55 4.24M21 16V8a2 2 0 0 0-1-1.73l-7-4a2 2 0 0 0-2 0l-7 4A2 2 0 0 0 3 8v8a2 2 0 0 0 1 1.73l7 4a2 2 0 0 0 2 0l7-4A2 2 0 0 0 21 16z" stroke="currentColor" stroke-width="1.5" stroke-linecap="round" stroke-linejoin="round"/>
    <path d="M3.27 6.96L12 12.01l8.73-5.05M12 22.08V12" stroke="currentColor" stroke-width="1.5" stroke-linecap="round" stroke-linejoin="round"/>
  </symbol>

  <symbol id="icon-truck" viewBox="0 0 24 24" fill="none">
    <rect x="1" y="3" width="15" height="13" stroke="currentColor" stroke-width="1.5" stroke-linecap="round" stroke-linejoin="round"/>
    <path d="M16 8h4l3 3v5h-7V8z" stroke="currentColor" stroke-width="1.5" stroke-linecap="round" stroke-linejoin="round"/>
    <circle cx="5.5" cy="18.5" r="2.5" stroke="currentColor" stroke-width="1.5"/>
    <circle cx="18.5" cy="18.5" r="2.5" stroke="currentColor" stroke-width="1.5"/>
  </symbol>

  <symbol id="icon-location" viewBox="0 0 24 24" fill="none">
    <path d="M21 10c0 7-9 13-9 13s-9-6-9-13a9 9 0 0 1 18 0z" stroke="currentColor" stroke-width="1.5" stroke-linecap="round" stroke-linejoin="round"/>
    <circle cx="12" cy="10" r="3" stroke="currentColor" stroke-width="1.5"/>
  </symbol>

  <symbol id="icon-clock" viewBox="0 0 24 24" fill="none">
    <circle cx="12" cy="12" r="9" stroke="currentColor" stroke-width="1.5"/>
    <path d="M12 7v5l3 3" stroke="currentColor" stroke-width="1.5" stroke-linecap="round" stroke-linejoin="round"/>
  </symbol>

  <symbol id="icon-check-circle" viewBox="0 0 24 24" fill="none">
    <circle cx="12" cy="12" r="9" stroke="currentColor" stroke-width="1.5"/>
    <path d="M8 12l3 3 5-5" stroke="currentColor" stroke-width="1.5" stroke-linecap="round" stroke-linejoin="round"/>
  </symbol>

  <!-- ── Communication & Support ───────────────────────────────────────── -->

  <symbol id="icon-bell" viewBox="0 0 24 24" fill="none">
    <path d="M18 8A6 6 0 0 0 6 8c0 7-3 9-3 9h18s-3-2-3-9M13.73 21a2 2 0 0 1-3.46 0" stroke="currentColor" stroke-width="1.5" stroke-linecap="round" stroke-linejoin="round"/>
  </symbol>

  <symbol id="icon-message" viewBox="0 0 24 24" fill="none">
    <path d="M21 15a2 2 0 0 1-2 2H7l-4 4V5a2 2 0 0 1 2-2h14a2 2 0 0 1 2 2v10z" stroke="currentColor" stroke-width="1.5" stroke-linecap="round" stroke-linejoin="round"/>
  </symbol>

  <symbol id="icon-phone" viewBox="0 0 24 24" fill="none">
    <path d="M22 16.92v3a2 2 0 0 1-2.18 2 19.79 19.79 0 0 1-8.63-3.07A19.5 19.5 0 0 1 4.69 13a19.79 19.79 0 0 1-3.07-8.67A2 2 0 0 1 3.6 2.18h3a2 2 0 0 1 2 1.72 12.84 12.84 0 0 0 .7 2.81 2 2 0 0 1-.45 2.11L7.91 9.91a16 16 0 0 0 6.18 6.18l1.09-1.09a2 2 0 0 1 2.11-.45 12.84 12.84 0 0 0 2.81.7A2 2 0 0 1 22 16.92z" stroke="currentColor" stroke-width="1.5" stroke-linecap="round" stroke-linejoin="round"/>
  </symbol>

  <symbol id="icon-mail" viewBox="0 0 24 24" fill="none">
    <rect x="2" y="4" width="20" height="16" rx="2" stroke="currentColor" stroke-width="1.5"/>
    <path d="M22 4L12 13 2 4" stroke="currentColor" stroke-width="1.5" stroke-linecap="round" stroke-linejoin="round"/>
  </symbol>

  <!-- ── Filters & Sorting ──────────────────────────────────────────────── -->

  <symbol id="icon-filter" viewBox="0 0 24 24" fill="none">
    <path d="M22 3H2l8 9.46V19l4 2v-8.54L22 3z" stroke="currentColor" stroke-width="1.5" stroke-linecap="round" stroke-linejoin="round"/>
  </symbol>

  <symbol id="icon-sort" viewBox="0 0 24 24" fill="none">
    <path d="M3 6h18M7 12h10M11 18h2" stroke="currentColor" stroke-width="1.5" stroke-linecap="round"/>
  </symbol>

  <symbol id="icon-grid" viewBox="0 0 24 24" fill="none">
    <rect x="3" y="3" width="7" height="7" rx="1" stroke="currentColor" stroke-width="1.5"/>
    <rect x="14" y="3" width="7" height="7" rx="1" stroke="currentColor" stroke-width="1.5"/>
    <rect x="3" y="14" width="7" height="7" rx="1" stroke="currentColor" stroke-width="1.5"/>
    <rect x="14" y="14" width="7" height="7" rx="1" stroke="currentColor" stroke-width="1.5"/>
  </symbol>

  <symbol id="icon-list" viewBox="0 0 24 24" fill="none">
    <path d="M8 6h13M8 12h13M8 18h13M3 6h.01M3 12h.01M3 18h.01" stroke="currentColor" stroke-width="1.5" stroke-linecap="round" stroke-linejoin="round"/>
  </symbol>

  <!-- ── Status & Feedback ──────────────────────────────────────────────── -->

  <symbol id="icon-check" viewBox="0 0 24 24" fill="none">
    <path d="M20 6L9 17l-5-5" stroke="currentColor" stroke-width="1.5" stroke-linecap="round" stroke-linejoin="round"/>
  </symbol>

  <symbol id="icon-alert" viewBox="0 0 24 24" fill="none">
    <path d="M10.29 3.86L1.82 18a2 2 0 0 0 1.71 3h16.94a2 2 0 0 0 1.71-3L13.71 3.86a2 2 0 0 0-3.42 0z" stroke="currentColor" stroke-width="1.5" stroke-linecap="round" stroke-linejoin="round"/>
    <path d="M12 9v4M12 17h.01" stroke="currentColor" stroke-width="1.5" stroke-linecap="round"/>
  </symbol>

  <symbol id="icon-info" viewBox="0 0 24 24" fill="none">
    <circle cx="12" cy="12" r="9" stroke="currentColor" stroke-width="1.5"/>
    <path d="M12 16v-4M12 8h.01" stroke="currentColor" stroke-width="1.5" stroke-linecap="round"/>
  </symbol>

  <symbol id="icon-x-circle" viewBox="0 0 24 24" fill="none">
    <circle cx="12" cy="12" r="9" stroke="currentColor" stroke-width="1.5"/>
    <path d="M15 9l-6 6M9 9l6 6" stroke="currentColor" stroke-width="1.5" stroke-linecap="round"/>
  </symbol>

  <!-- ── Media & Files ──────────────────────────────────────────────────── -->

  <symbol id="icon-image" viewBox="0 0 24 24" fill="none">
    <rect x="3" y="3" width="18" height="18" rx="2" stroke="currentColor" stroke-width="1.5"/>
    <circle cx="8.5" cy="8.5" r="1.5" stroke="currentColor" stroke-width="1.5"/>
    <path d="M21 15l-5-5L5 21" stroke="currentColor" stroke-width="1.5" stroke-linecap="round" stroke-linejoin="round"/>
  </symbol>

  <symbol id="icon-upload" viewBox="0 0 24 24" fill="none">
    <path d="M21 15v4a2 2 0 0 1-2 2H5a2 2 0 0 1-2-2v-4M17 8l-5-5-5 5M12 3v12" stroke="currentColor" stroke-width="1.5" stroke-linecap="round" stroke-linejoin="round"/>
  </symbol>

  <symbol id="icon-download" viewBox="0 0 24 24" fill="none">
    <path d="M21 15v4a2 2 0 0 1-2 2H5a2 2 0 0 1-2-2v-4M7 10l5 5 5-5M12 15V3" stroke="currentColor" stroke-width="1.5" stroke-linecap="round" stroke-linejoin="round"/>
  </symbol>

  <!-- ── Misc ───────────────────────────────────────────────────────────── -->

  <symbol id="icon-share" viewBox="0 0 24 24" fill="none">
    <circle cx="18" cy="5" r="3" stroke="currentColor" stroke-width="1.5"/>
    <circle cx="6" cy="12" r="3" stroke="currentColor" stroke-width="1.5"/>
    <circle cx="18" cy="19" r="3" stroke="currentColor" stroke-width="1.5"/>
    <path d="M8.59 13.51l6.83 3.98M15.41 6.51l-6.82 3.98" stroke="currentColor" stroke-width="1.5"/>
  </symbol>

  <symbol id="icon-copy" viewBox="0 0 24 24" fill="none">
    <rect x="9" y="9" width="13" height="13" rx="2" stroke="currentColor" stroke-width="1.5"/>
    <path d="M5 15H4a2 2 0 0 1-2-2V4a2 2 0 0 1 2-2h9a2 2 0 0 1 2 2v1" stroke="currentColor" stroke-width="1.5" stroke-linecap="round"/>
  </symbol>

  <symbol id="icon-trash" viewBox="0 0 24 24" fill="none">
    <path d="M3 6h18M8 6V4h8v2M19 6l-1 14H6L5 6" stroke="currentColor" stroke-width="1.5" stroke-linecap="round" stroke-linejoin="round"/>
    <path d="M10 11v6M14 11v6" stroke="currentColor" stroke-width="1.5" stroke-linecap="round"/>
  </symbol>

  <symbol id="icon-edit" viewBox="0 0 24 24" fill="none">
    <path d="M11 4H4a2 2 0 0 0-2 2v14a2 2 0 0 0 2 2h14a2 2 0 0 0 2-2v-7" stroke="currentColor" stroke-width="1.5" stroke-linecap="round" stroke-linejoin="round"/>
    <path d="M18.5 2.5a2.121 2.121 0 0 1 3 3L12 15l-4 1 1-4 9.5-9.5z" stroke="currentColor" stroke-width="1.5" stroke-linecap="round" stroke-linejoin="round"/>
  </symbol>

  <symbol id="icon-eye" viewBox="0 0 24 24" fill="none">
    <path d="M1 12s4-8 11-8 11 8 11 8-4 8-11 8-11-8-11-8z" stroke="currentColor" stroke-width="1.5" stroke-linecap="round" stroke-linejoin="round"/>
    <circle cx="12" cy="12" r="3" stroke="currentColor" stroke-width="1.5"/>
  </symbol>

  <symbol id="icon-eye-off" viewBox="0 0 24 24" fill="none">
    <path d="M17.94 17.94A10.07 10.07 0 0 1 12 20c-7 0-11-8-11-8a18.45 18.45 0 0 1 5.06-5.94M9.9 4.24A9.12 9.12 0 0 1 12 4c7 0 11 8 11 8a18.5 18.5 0 0 1-2.16 3.19M1 1l22 22" stroke="currentColor" stroke-width="1.5" stroke-linecap="round" stroke-linejoin="round"/>
    <path d="M10.73 10.73A2 2 0 0 0 14 12a2 2 0 0 0-.27 1" stroke="currentColor" stroke-width="1.5" stroke-linecap="round"/>
  </symbol>

  <symbol id="icon-lock" viewBox="0 0 24 24" fill="none">
    <rect x="3" y="11" width="18" height="11" rx="2" stroke="currentColor" stroke-width="1.5"/>
    <path d="M7 11V7a5 5 0 0 1 10 0v4" stroke="currentColor" stroke-width="1.5" stroke-linecap="round" stroke-linejoin="round"/>
  </symbol>

  <symbol id="icon-sun" viewBox="0 0 24 24" fill="none">
    <circle cx="12" cy="12" r="5" stroke="currentColor" stroke-width="1.5"/>
    <path d="M12 1v2M12 21v2M4.22 4.22l1.42 1.42M18.36 18.36l1.42 1.42M1 12h2M21 12h2M4.22 19.78l1.42-1.42M18.36 5.64l1.42-1.42" stroke="currentColor" stroke-width="1.5" stroke-linecap="round"/>
  </symbol>

  <symbol id="icon-moon" viewBox="0 0 24 24" fill="none">
    <path d="M21 12.79A9 9 0 1 1 11.21 3 7 7 0 0 0 21 12.79z" stroke="currentColor" stroke-width="1.5" stroke-linecap="round" stroke-linejoin="round"/>
  </symbol>

  <symbol id="icon-globe" viewBox="0 0 24 24" fill="none">
    <circle cx="12" cy="12" r="9" stroke="currentColor" stroke-width="1.5"/>
    <path d="M2 12h20M12 3a15.3 15.3 0 0 1 4 9 15.3 15.3 0 0 1-4 9 15.3 15.3 0 0 1-4-9 15.3 15.3 0 0 1 4-9z" stroke="currentColor" stroke-width="1.5" stroke-linecap="round" stroke-linejoin="round"/>
  </symbol>

  <symbol id="icon-loyalty" viewBox="0 0 24 24" fill="none">
    <path d="M12 2l2.4 7.4H22l-6.2 4.5 2.4 7.4L12 17l-6.2 4.3 2.4-7.4L2 9.4h7.6L12 2z" stroke="currentColor" stroke-width="1.5" stroke-linecap="round" stroke-linejoin="round"/>
  </symbol>

</svg>
