<!-- ============================================================
  Branded Icon Symbols
  Namespace: brand-*   (distinct from ui icon- prefix)
  Rules:
    - Fill/stroke values are HARDCODED (no currentColor) to preserve brand identity
    - width/height attributes removed; viewBox retained for SCSS size classes
    - Append these <symbol> tags inside your existing icons.svg <svg> wrapper
  ============================================================ -->

<svg xmlns="http://www.w3.org/2000/svg" style="display:none">

  <!-- ── Social Media ─────────────────────────────────────── -->

  <symbol id="brand-facebook" viewBox="0 0 24 24">
    <path fill="#1877F2"
      d="M24 12.073C24 5.405 18.627 0 12 0S0 5.405 0 12.073C0 18.1 4.388 23.094 10.125 24v-8.437H7.078v-3.49h3.047v-2.66c0-3.025 1.792-4.697 4.533-4.697 1.312 0 2.686.235 2.686.235v2.97h-1.513c-1.491 0-1.956.93-1.956 1.884v2.268h3.328l-.532 3.49h-2.796V24C19.612 23.094 24 18.1 24 12.073Z"/>
    <path fill="#fff"
      d="M16.671 15.563l.532-3.49h-3.328v-2.268c0-.954.465-1.884 1.956-1.884h1.513V4.95s-1.374-.235-2.686-.235c-2.741 0-4.533 1.672-4.533 4.697v2.66H7.078v3.49h3.047V24a12.15 12.15 0 0 0 3.75 0v-8.437h2.796Z"/>
  </symbol>

  <symbol id="brand-x-twitter" viewBox="0 0 24 24">
    <path fill="#000"
      d="M18.244 2.25h3.308l-7.227 8.26 8.502 11.24H16.17l-4.714-6.231-5.401 6.231H2.744l7.73-8.835L1.254 2.25H8.08l4.713 6.231 5.45-6.231Zm-1.161 17.52h1.833L7.084 4.126H5.117L17.083 19.77Z"/>
  </symbol>

  <symbol id="brand-twitter" viewBox="0 0 24 24">
    <path fill="#1DA1F2"
      d="M23.953 4.57a10 10 0 0 1-2.825.775 4.958 4.958 0 0 0 2.163-2.723c-.951.555-2.005.959-3.127 1.184a4.92 4.92 0 0 0-8.384 4.482C7.69 8.095 4.067 6.13 1.64 3.162a4.822 4.822 0 0 0-.666 2.475c0 1.71.87 3.213 2.188 4.096a4.904 4.904 0 0 1-2.228-.616v.06a4.923 4.923 0 0 0 3.946 4.827 4.996 4.996 0 0 1-2.212.085 4.936 4.936 0 0 0 4.604 3.417 9.867 9.867 0 0 1-6.102 2.105c-.39 0-.779-.023-1.17-.067a13.995 13.995 0 0 0 7.557 2.209c9.053 0 13.998-7.496 13.998-13.985 0-.21 0-.42-.015-.63A9.935 9.935 0 0 0 24 4.59l-.047-.02Z"/>
  </symbol>

  <symbol id="brand-instagram" viewBox="0 0 24 24">
    <!-- Gradient definitions are inlined for self-contained symbol use -->
    <defs>
      <radialGradient id="ig-grad-a" cx="30%" cy="107%" r="150%">
        <stop offset="0%" stop-color="#fdf497"/>
        <stop offset="5%" stop-color="#fdf497"/>
        <stop offset="45%" stop-color="#fd5949"/>
        <stop offset="60%" stop-color="#d6249f"/>
        <stop offset="90%" stop-color="#285AEB"/>
      </radialGradient>
    </defs>
    <rect width="24" height="24" rx="5" fill="url(#ig-grad-a)"/>
    <path fill="#fff"
      d="M12 7.2A4.8 4.8 0 1 0 12 16.8 4.8 4.8 0 0 0 12 7.2Zm0 7.92A3.12 3.12 0 1 1 12 8.88a3.12 3.12 0 0 1 0 6.24ZM17.04 6.96a1.12 1.12 0 1 0 0 2.24 1.12 1.12 0 0 0 0-2.24ZM20.16 5.28A5.76 5.76 0 0 0 18.72 3.84a5.778 5.778 0 0 0-1.44-.384C16.632 3.36 16.2 3.36 14.4 3.36H9.6c-1.8 0-2.232 0-2.88.096a5.778 5.778 0 0 0-1.44.384A5.76 5.76 0 0 0 3.84 5.28a5.778 5.778 0 0 0-.384 1.44C3.36 7.368 3.36 7.8 3.36 9.6v4.8c0 1.8 0 2.232.096 2.88a5.778 5.778 0 0 0 .384 1.44 5.76 5.76 0 0 0 1.44 1.44 5.778 5.778 0 0 0 1.44.384C7.368 20.64 7.8 20.64 9.6 20.64h4.8c1.8 0 2.232 0 2.88-.096a5.778 5.778 0 0 0 1.44-.384 5.76 5.76 0 0 0 1.44-1.44 5.778 5.778 0 0 0 .384-1.44C20.64 16.632 20.64 16.2 20.64 14.4V9.6c0-1.8 0-2.232-.096-2.88a5.778 5.778 0 0 0-.384-1.32Zm-1.584 10.704a4.08 4.08 0 0 1-.264 1.392 2.904 2.904 0 0 1-1.656 1.656 4.08 4.08 0 0 1-1.392.264C14.664 19.32 14.256 19.32 12 19.32s-2.664 0-3.264-.048a4.08 4.08 0 0 1-1.392-.264 2.904 2.904 0 0 1-1.656-1.656 4.08 4.08 0 0 1-.264-1.392C5.376 15.384 5.376 14.976 5.376 12s0-3.384.048-3.984a4.08 4.08 0 0 1 .264-1.392 2.904 2.904 0 0 1 1.656-1.656A4.08 4.08 0 0 1 8.736 4.68C9.336 4.632 9.744 4.632 12 4.632s2.664 0 3.264.048a4.08 4.08 0 0 1 1.392.264 2.904 2.904 0 0 1 1.656 1.656 4.08 4.08 0 0 1 .264 1.392c.048.6.048 1.008.048 3.264s0 3.384-.048 3.984l.04-.336Z"/>
  </symbol>

  <symbol id="brand-linkedin" viewBox="0 0 24 24">
    <rect width="24" height="24" rx="3" fill="#0A66C2"/>
    <path fill="#fff"
      d="M7.25 9.5H4.75v9.5h2.5V9.5ZM6 8.5a1.5 1.5 0 1 0 0-3 1.5 1.5 0 0 0 0 3ZM19.25 19h-2.5v-4.5c0-1.1-.9-2-2-2s-2 .9-2 2V19h-2.5V9.5H12.75v1.3A4 4 0 0 1 15.5 9.5a3.75 3.75 0 0 1 3.75 3.75V19Z"/>
  </symbol>

  <symbol id="brand-google" viewBox="0 0 24 24">
    <path fill="#4285F4" d="M23.745 12.27c0-.79-.07-1.54-.19-2.27h-11.3v4.51h6.47c-.29 1.48-1.14 2.73-2.4 3.58v3h3.86c2.26-2.09 3.56-5.17 3.56-8.82Z"/>
    <path fill="#34A853" d="M12.255 24c3.24 0 5.95-1.08 7.93-2.91l-3.86-3c-1.08.72-2.45 1.16-4.07 1.16-3.13 0-5.78-2.11-6.73-4.96h-3.98v3.09C3.515 21.3 7.565 24 12.255 24Z"/>
    <path fill="#FBBC05" d="M5.525 14.29c-.25-.72-.38-1.49-.38-2.29s.14-1.57.38-2.29V6.62h-3.98a11.86 11.86 0 0 0 0 10.76l3.98-3.09Z"/>
    <path fill="#EA4335" d="M12.255 4.75c1.77 0 3.35.61 4.6 1.8l3.42-3.42C18.205 1.19 15.495 0 12.255 0c-4.69 0-8.74 2.7-10.71 6.62l3.98 3.09c.95-2.85 3.6-4.96 6.73-4.96Z"/>
  </symbol>

  <symbol id="brand-youtube" viewBox="0 0 24 24">
    <path fill="#FF0000"
      d="M23.495 6.205a3.007 3.007 0 0 0-2.088-2.088c-1.87-.501-9.396-.501-9.396-.501s-7.507-.01-9.396.501A3.007 3.007 0 0 0 .527 6.205a31.247 31.247 0 0 0-.522 5.805 31.247 31.247 0 0 0 .522 5.783 3.007 3.007 0 0 0 2.088 2.088c1.868.502 9.396.502 9.396.502s7.506 0 9.396-.502a3.007 3.007 0 0 0 2.088-2.088 31.247 31.247 0 0 0 .5-5.783 31.247 31.247 0 0 0-.5-5.805Z"/>
    <path fill="#fff" d="m9.609 15.601 6.264-3.601-6.264-3.601v7.202Z"/>
  </symbol>

  <symbol id="brand-apple" viewBox="0 0 24 24">
    <path fill="#000"
      d="M12.152 6.896c-.948 0-2.415-1.078-3.96-1.04-2.04.027-3.91 1.183-4.961 3.014-2.117 3.675-.54 9.103 1.519 12.09 1.013 1.454 2.208 3.09 3.792 3.039 1.52-.065 2.09-.987 3.925-.987 1.831 0 2.35.987 3.96.948 1.637-.026 2.676-1.48 3.676-2.948 1.156-1.688 1.636-3.325 1.662-3.415-.039-.013-3.182-1.221-3.22-4.857-.026-3.04 2.48-4.494 2.597-4.559-1.429-2.09-3.623-2.324-4.39-2.376-2-.156-3.675 1.09-4.61 1.09ZM15.53 3.83c.843-1.012 1.4-2.427 1.245-3.83-1.207.052-2.662.805-3.532 1.818-.78.896-1.454 2.338-1.273 3.714 1.338.104 2.715-.688 3.559-1.701Z"/>
  </symbol>

  <symbol id="brand-snapchat" viewBox="0 0 24 24">
    <path fill="#FFFC00"
      d="M12.065.001c-.677 0-4.297.192-6.27 4.22-.716 1.483-.528 3.986-.44 5.27l-.042.022c-.31.157-.67.241-1.04.241-.302 0-.62-.06-.938-.178-.137-.05-.272-.073-.395-.073-.286 0-.477.124-.544.348-.1.322.17.623.555.779.044.017 1.13.424 1.232 1.412.009.089.012.18.012.274 0 .518-.163 1.122-.488 1.796-.566 1.176-1.764 2.5-4.027 3.198-.143.045-.222.195-.182.342.04.147.19.237.337.198.044-.012.088-.023.132-.033.367-.09.85-.148 1.395-.148.568 0 1.052.073 1.098.08.455.065.686.33.857.744.2.483.375 1.003.534 1.283.176.314.392.482.647.499.37.024.698-.238 1.152-.577.522-.39 1.237-.923 2.339-1.363.67-.265 1.307-.39 1.939-.39.664 0 1.323.134 2.017.41 1.024.41 1.722.936 2.23 1.322.453.34.77.578 1.102.579h.004c.262 0 .476-.154.652-.47.164-.296.35-.83.545-1.302.172-.414.408-.663.848-.727l.045-.007c.042-.005.505-.074 1.057-.074.54 0 1.02.058 1.39.147.044.01.088.022.132.033.148.04.298-.05.337-.197.04-.147-.038-.297-.18-.342-2.268-.698-3.468-2.024-4.032-3.2-.323-.67-.487-1.275-.487-1.794 0-.093.004-.184.012-.273.101-.989 1.186-1.396 1.23-1.413.4-.157.672-.448.571-.78-.067-.224-.258-.348-.544-.348-.123 0-.258.024-.396.074-.319.116-.638.176-.94.176-.37 0-.73-.084-1.04-.241l-.043-.022c.09-1.284.278-3.787-.438-5.27C16.363.193 12.742.001 12.065.001Z"/>
  </symbol>

  <symbol id="brand-pinterest" viewBox="0 0 24 24">
    <path fill="#E60023"
      d="M12 0C5.373 0 0 5.372 0 12c0 5.084 3.163 9.426 7.627 11.174-.105-.949-.2-2.405.042-3.441.218-.937 1.407-5.965 1.407-5.965s-.359-.719-.359-1.782c0-1.668.967-2.914 2.171-2.914 1.023 0 1.518.769 1.518 1.69 0 1.029-.655 2.568-.994 3.995-.283 1.194.599 2.169 1.777 2.169 2.133 0 3.772-2.249 3.772-5.495 0-2.873-2.064-4.882-5.012-4.882-3.414 0-5.418 2.561-5.418 5.207 0 1.031.397 2.138.893 2.738a.36.36 0 0 1 .083.345l-.333 1.36c-.053.22-.174.267-.402.161-1.499-.698-2.436-2.889-2.436-4.649 0-3.785 2.75-7.262 7.929-7.262 4.163 0 7.398 2.967 7.398 6.931 0 4.136-2.607 7.464-6.227 7.464-1.216 0-2.359-.632-2.75-1.378l-.748 2.853c-.271 1.043-1.002 2.35-1.492 3.146C9.57 23.812 10.763 24 12 24c6.627 0 12-5.373 12-12S18.627 0 12 0Z"/>
  </symbol>

  <symbol id="brand-tiktok" viewBox="0 0 24 24">
    <path fill="#010101" d="M19.59 6.69a4.83 4.83 0 0 1-3.77-4.25V2h-3.45v13.67a2.89 2.89 0 0 1-2.88 2.5 2.89 2.89 0 0 1-2.89-2.89 2.89 2.89 0 0 1 2.89-2.89c.28 0 .54.04.79.1V9.01a6.33 6.33 0 0 0-.79-.05 6.34 6.34 0 0 0-6.34 6.34 6.34 6.34 0 0 0 6.34 6.34 6.34 6.34 0 0 0 6.33-6.34V8.85a8.19 8.19 0 0 0 4.77 1.52V6.92a4.85 4.85 0 0 1-1-.23Z"/>
  </symbol>

  <symbol id="brand-telegram" viewBox="0 0 24 24">
    <path fill="#2CA5E0"
      d="M12 0C5.373 0 0 5.373 0 12s5.373 12 12 12 12-5.373 12-12S18.627 0 12 0Zm5.894 8.221-1.97 9.28c-.145.658-.537.818-1.084.508l-3-2.21-1.447 1.394c-.16.16-.295.295-.605.295l.213-3.053 5.56-5.023c.242-.213-.054-.333-.373-.12l-6.871 4.326-2.962-.924c-.643-.204-.657-.643.136-.953l11.57-4.461c.537-.194 1.006.131.833.941Z"/>
  </symbol>

  <symbol id="brand-discord" viewBox="0 0 24 24">
    <path fill="#5865F2"
      d="M20.317 4.37a19.791 19.791 0 0 0-4.885-1.515.074.074 0 0 0-.079.037c-.21.375-.444.864-.608 1.25a18.27 18.27 0 0 0-5.487 0 12.64 12.64 0 0 0-.617-1.25.077.077 0 0 0-.079-.037A19.736 19.736 0 0 0 3.677 4.37a.07.07 0 0 0-.032.027C.533 9.046-.32 13.58.099 18.057a.082.082 0 0 0 .031.057 19.9 19.9 0 0 0 5.993 3.03.078.078 0 0 0 .084-.028 14.09 14.09 0 0 0 1.226-1.994.076.076 0 0 0-.041-.106 13.107 13.107 0 0 1-1.872-.892.077.077 0 0 1-.008-.128 10.2 10.2 0 0 0 .372-.292.074.074 0 0 1 .077-.01c3.928 1.793 8.18 1.793 12.062 0a.074.074 0 0 1 .078.01c.12.098.246.198.373.292a.077.077 0 0 1-.006.127 12.299 12.299 0 0 1-1.873.892.077.077 0 0 0-.041.107c.36.698.772 1.362 1.225 1.993a.076.076 0 0 0 .084.028 19.839 19.839 0 0 0 6.002-3.03.077.077 0 0 0 .032-.054c.5-5.177-.838-9.674-3.549-13.66a.061.061 0 0 0-.031-.03ZM8.02 15.33c-1.183 0-2.157-1.085-2.157-2.419 0-1.333.956-2.419 2.157-2.419 1.21 0 2.176 1.096 2.157 2.42 0 1.333-.956 2.418-2.157 2.418Zm7.975 0c-1.183 0-2.157-1.085-2.157-2.419 0-1.333.955-2.419 2.157-2.419 1.21 0 2.176 1.096 2.157 2.42 0 1.333-.946 2.418-2.157 2.418Z"/>
  </symbol>

  <symbol id="brand-whatsapp" viewBox="0 0 24 24">
    <path fill="#25D366"
      d="M17.472 14.382c-.297-.149-1.758-.867-2.03-.967-.273-.099-.471-.148-.67.15-.197.297-.767.966-.94 1.164-.173.199-.347.223-.644.075-.297-.15-1.255-.463-2.39-1.475-.883-.788-1.48-1.761-1.653-2.059-.173-.297-.018-.458.13-.606.134-.133.298-.347.446-.52.149-.174.198-.298.298-.497.099-.198.05-.371-.025-.52-.075-.149-.669-1.612-.916-2.207-.242-.579-.487-.5-.669-.51-.173-.008-.371-.01-.57-.01-.198 0-.52.074-.792.372-.272.297-1.04 1.016-1.04 2.479 0 1.462 1.065 2.875 1.213 3.074.149.198 2.096 3.2 5.077 4.487.709.306 1.262.489 1.694.625.712.227 1.36.195 1.871.118.571-.085 1.758-.719 2.006-1.413.248-.694.248-1.289.173-1.413-.074-.124-.272-.198-.57-.347Z"/>
    <path fill="#25D366"
      d="M12.004 0C5.373 0 0 5.373 0 12c0 2.114.548 4.1 1.504 5.833L.057 23.804l6.051-1.588A11.946 11.946 0 0 0 12.004 24C18.627 24 24 18.627 24 12S18.627 0 12.004 0Zm-.004 21.818a9.819 9.819 0 0 1-4.988-1.365l-.357-.213-3.702.971.987-3.611-.233-.371A9.818 9.818 0 0 1 2.182 12c0-5.422 4.41-9.831 9.818-9.831 5.422 0 9.831 4.41 9.831 9.831 0 5.422-4.41 9.818-9.831 9.818Z"/>
  </symbol>

  <symbol id="brand-github" viewBox="0 0 24 24">
    <path fill="#181717"
      d="M12 .297c-6.63 0-12 5.373-12 12 0 5.303 3.438 9.8 8.205 11.385.6.113.82-.258.82-.577 0-.285-.01-1.04-.015-2.04-3.338.724-4.042-1.61-4.042-1.61C4.422 18.07 3.633 17.7 3.633 17.7c-1.087-.744.084-.729.084-.729 1.205.084 1.838 1.236 1.838 1.236 1.07 1.835 2.809 1.305 3.495.998.108-.776.417-1.305.76-1.605-2.665-.3-5.466-1.332-5.466-5.93 0-1.31.465-2.38 1.235-3.22-.135-.303-.54-1.523.105-3.176 0 0 1.005-.322 3.3 1.23.96-.267 1.98-.399 3-.405 1.02.006 2.04.138 3 .405 2.28-1.552 3.285-1.23 3.285-1.23.645 1.653.24 2.873.12 3.176.765.84 1.23 1.91 1.23 3.22 0 4.61-2.805 5.625-5.475 5.92.42.36.81 1.096.81 2.22 0 1.606-.015 2.896-.015 3.286 0 .315.21.69.825.57C20.565 22.092 24 17.592 24 12.297c0-6.627-5.373-12-12-12Z"/>
  </symbol>

  <symbol id="brand-slack" viewBox="0 0 24 24">
    <path fill="#E01E5A" d="M5.042 15.165a2.528 2.528 0 0 1-2.52 2.523A2.528 2.528 0 0 1 0 15.165a2.527 2.527 0 0 1 2.522-2.52h2.52v2.52ZM6.313 15.165a2.527 2.527 0 0 1 2.521-2.52 2.527 2.527 0 0 1 2.521 2.52v6.313A2.528 2.528 0 0 1 8.834 24a2.528 2.528 0 0 1-2.521-2.522v-6.313Z"/>
    <path fill="#36C5F0" d="M8.834 5.042a2.528 2.528 0 0 1-2.521-2.52A2.528 2.528 0 0 1 8.834 0a2.528 2.528 0 0 1 2.521 2.522v2.52H8.834ZM8.834 6.313a2.528 2.528 0 0 1 2.521 2.521 2.528 2.528 0 0 1-2.521 2.521H2.522A2.528 2.528 0 0 1 0 8.834a2.528 2.528 0 0 1 2.522-2.521h6.312Z"/>
    <path fill="#2EB67D" d="M18.956 8.834a2.528 2.528 0 0 1 2.522-2.521A2.528 2.528 0 0 1 24 8.834a2.528 2.528 0 0 1-2.522 2.521h-2.522V8.834ZM17.688 8.834a2.528 2.528 0 0 1-2.523 2.521 2.527 2.527 0 0 1-2.52-2.521V2.522A2.527 2.527 0 0 1 15.165 0a2.528 2.528 0 0 1 2.523 2.522v6.312Z"/>
    <path fill="#ECB22E" d="M15.165 18.956a2.528 2.528 0 0 1 2.523 2.522A2.528 2.528 0 0 1 15.165 24a2.527 2.527 0 0 1-2.52-2.522v-2.522h2.52ZM15.165 17.688a2.527 2.527 0 0 1-2.52-2.523 2.526 2.526 0 0 1 2.52-2.52h6.313A2.527 2.527 0 0 1 24 15.165a2.528 2.528 0 0 1-2.522 2.523h-6.313Z"/>
  </symbol>

  <!-- ── Payment / Logos ─────────────────────────────────── -->

  <symbol id="brand-visa" viewBox="0 0 48 16">
    <rect width="48" height="16" rx="2" fill="#1A1F71"/>
    <path fill="#F7B600" d="M18.2 2.4 14.8 13.6h-2.8L15.4 2.4h2.8Zm11.7 7.2-1.5-4.1-.9 4.1h-2.6l2.2-10.8 2.5-.1 2.4 5.8 2.4-5.7h2.5L34.4 13.6h-2.6l-1.9-4Z"/>
    <path fill="#F7B600" d="M11.4 2.4 8 10.9l-.4-2.1L6.4 3.6c-.2-.6-.8-1.1-1.5-1.2H.8L.7 2.9c1 .2 1.9.6 2.8 1.1l2.9 10.7h3l4.5-12.3h-2.5ZM30.7 9.3c0-2.6 3.6-2.7 3.6-2.7s.1-1 .1-1.4c0-1.1-.5-1.5-1.4-1.5-1 0-1.9.4-2.5.8l-.5-1.9c.9-.5 2.1-.8 3.3-.8 2.1 0 3.5 1 3.5 3.5 0 3-3.5 6.3-3.5 6.3h-3.2c.5-.9.6-2.3.6-2.3Z"/>
  </symbol>

  <symbol id="brand-mastercard" viewBox="0 0 48 32">
    <rect width="48" height="32" rx="4" fill="#252525"/>
    <circle cx="19" cy="16" r="9" fill="#EB001B"/>
    <circle cx="29" cy="16" r="9" fill="#F79E1B"/>
    <path fill="#FF5F00" d="M24 8.5a9 9 0 0 1 0 15A9 9 0 0 1 24 8.5Z"/>
  </symbol>

  <symbol id="brand-mada" viewBox="0 0 60 24">
    <!-- Mada wordmark placeholder — replace with official SVG export if available -->
    <rect width="60" height="24" rx="4" fill="#6B2D8B"/>
    <text x="30" y="17" text-anchor="middle" fill="#fff" font-family="Arial, sans-serif"
      font-size="12" font-weight="bold" letter-spacing="1">mada</text>
  </symbol>

  <symbol id="brand-stc-pay" viewBox="0 0 60 24">
    <rect width="60" height="24" rx="4" fill="#6A0DAD"/>
    <text x="30" y="17" text-anchor="middle" fill="#fff" font-family="Arial, sans-serif"
      font-size="11" font-weight="bold">STC Pay</text>
  </symbol>

  <symbol id="brand-apple-pay" viewBox="0 0 60 24">
    <rect width="60" height="24" rx="4" fill="#000"/>
    <path fill="#fff"
      d="M21.27 8.9c-.42.5-1.1.89-1.77.83-.08-.67.24-1.38.63-1.82.42-.5 1.16-.86 1.76-.89.07.7-.2 1.38-.62 1.88Zm.61.98c-.98-.06-1.81.56-2.28.56-.47 0-1.19-.53-1.97-.52-1.01.02-1.95.59-2.47 1.5-.84 1.46-.22 3.62.6 4.81.4.59.88 1.24 1.51 1.22.6-.02.83-.39 1.56-.39.72 0 .93.39 1.56.38.65-.01 1.07-.6 1.47-1.19.46-.67.65-1.32.66-1.35-.01-.01-1.27-.49-1.28-1.94-.01-1.21.99-1.79 1.03-1.82-.56-.83-1.44-.92-1.39-.27ZM29 7.64h-3.6v9.3h1.4v-3.18h2.2c2 0 3.41-1.38 3.41-3.07C32.41 9.02 31 7.64 29 7.64Zm.12 4.93h-1.72V8.81h1.72c1.32 0 2.07.7 2.07 1.88 0 1.17-.75 1.88-2.07 1.88ZM36.87 17.03c1 0 1.92-.5 2.34-1.3h.03v1.22h1.3V12.3c0-1.31-1.05-2.15-2.66-2.15-1.5 0-2.6.85-2.64 2.02h1.26c.1-.55.62-.92 1.35-.92.87 0 1.36.41 1.36 1.15v.5l-1.78.11c-1.65.1-2.55.78-2.55 1.96 0 1.2.93 1.96 2.19 2.06.04 0 .06.01.06.01Zm.38-1.11c-.76 0-1.24-.36-1.24-.92 0-.57.47-.9 1.36-.96l1.58-.1v.52c0 .83-.71 1.46-1.7 1.46Zm6.14 3.97c1.37 0 2.02-.52 2.58-2.1l2.47-6.64h-1.42l-1.65 5.37h-.03l-1.65-5.37h-1.47l2.4 6.63-.13.4c-.22.7-.57.97-1.2.97-.11 0-.33-.01-.42-.03v1.11c.09.03.38.06.52.06Z"/>
  </symbol>

</svg>
