<svg width="333" height="159" viewBox="0 0 333 159" fill="none" xmlns="http://www.w3.org/2000/svg">
<g clip-path="url(#clip0_4036_7283)">
<path d="M131.817 88.4892C136.133 88.4892 140.449 88.4868 144.765 88.4727C146.694 88.468 148.653 88.3247 150.545 87.977C152.659 87.5893 153.547 86.4851 153.585 84.4245C153.674 79.5775 153.674 74.7305 153.696 69.8835C153.71 66.3216 153.7 62.7574 153.703 59.1956C153.703 58.8337 153.703 58.4719 153.703 58.0044C154.196 57.9809 154.598 57.948 154.999 57.948C167.198 57.9456 179.397 57.955 191.595 57.9221C192.505 57.9198 192.906 58.2017 193.278 58.9912C197.027 66.9771 200.829 74.9419 204.619 82.9115C204.788 83.2662 204.978 83.614 205.251 84.145C205.558 83.52 205.786 83.0712 206.003 82.6154C209.804 74.6483 213.608 66.6834 217.395 58.7116C217.738 57.9903 218.025 58.1171 219.656 58.0795C226.958 57.9174 232.893 57.9174 239.514 58.0091C240.035 58.0161 240.157 57.9386 240.745 57.9903C240.766 58.3826 240.801 58.768 240.801 59.1556C240.803 71.7889 240.789 84.4245 240.829 97.0578C240.832 98.1504 240.47 98.3994 239.403 98.3783C236.126 98.3125 232.846 98.3148 229.568 98.3665C228.558 98.383 228.198 98.1668 228.215 97.1025C228.356 87.9582 228.438 78.8139 228.501 69.6697C228.506 69.1457 228.969 68.3116 227.975 68.1284C227.045 67.9569 226.34 68.1049 225.802 69.1528C220.983 78.5226 216.065 87.8454 211.218 97.1988C210.64 98.3125 210.032 98.1715 208.105 98.2044C206.183 98.2373 204.891 98.2937 201.865 98.2232C200.38 98.1879 199.92 98.3289 199.485 97.4948C194.579 88.0475 189.636 78.6142 184.735 69.1645C184.331 68.3868 183.896 68.0414 182.937 68.0508C177.867 68.1025 172.797 68.072 167.727 68.0696C167.353 68.0696 166.977 68.0696 166.432 68.0696C166.432 68.556 166.432 68.9437 166.432 69.3313C166.432 74.4368 166.479 79.5423 166.406 84.6454C166.378 86.5814 166.258 88.5479 165.861 90.4393C164.91 94.9785 162.001 97.6123 157.156 98.2443C153.996 98.6555 150.792 98.9116 147.603 98.9304C142.27 98.9633 136.939 98.975 131.605 98.9774" fill="#274EA2"/>
<path d="M131.61 99.3344V98.6296C137.782 98.6272 142.867 98.6131 147.606 98.5826C150.573 98.5638 153.771 98.3335 157.114 97.8989C161.771 97.2927 164.6 94.76 165.518 90.3711C165.958 88.2777 166.035 86.0997 166.056 84.6453C166.108 80.9966 166.099 77.2843 166.089 73.6919C166.084 72.24 166.082 70.788 166.082 69.3336V67.7195H167.729C169.038 67.7195 170.344 67.7218 171.653 67.7242C175.351 67.7312 179.176 67.7383 182.937 67.6984C184.126 67.6843 184.643 68.2105 185.052 69.0023C187.639 73.988 190.28 79.0512 192.831 83.9475C195.157 88.4093 197.483 92.8686 199.802 97.3327C200.065 97.8402 200.244 97.8566 201.278 97.8637C201.456 97.8637 201.656 97.866 201.877 97.8707C204.33 97.9294 205.664 97.9012 207.074 97.8707C207.405 97.8636 207.744 97.8566 208.103 97.8496C208.329 97.8449 208.535 97.8448 208.726 97.8425C210.215 97.8331 210.509 97.8049 210.908 97.0343C212.912 93.1693 214.959 89.2457 216.939 85.4489C219.752 80.0591 222.663 74.4837 225.489 68.9859C226.182 67.6373 227.167 67.6161 228.041 67.7759C228.391 67.8393 228.647 67.985 228.802 68.2082C229.044 68.5583 228.967 68.9835 228.903 69.3242C228.88 69.4534 228.856 69.5756 228.856 69.6649C228.804 77.1551 228.722 87.0418 228.57 97.1001C228.562 97.4948 228.614 97.7415 228.725 97.8519C228.84 97.967 229.096 98.014 229.566 98.007C233.064 97.9529 236.285 97.9576 239.412 98.0187C239.899 98.0281 240.174 97.9764 240.301 97.8496C240.423 97.7297 240.479 97.4689 240.479 97.0507C240.451 87.5634 240.451 77.9187 240.451 68.5935C240.451 65.4452 240.451 62.2968 240.451 59.1485C240.451 58.8971 240.435 58.6457 240.418 58.3779C240.418 58.3591 240.416 58.3379 240.413 58.3191C240.27 58.3191 240.164 58.3262 240.047 58.3356C239.904 58.3473 239.744 58.3591 239.511 58.3567C232.315 58.258 226.38 58.2768 219.667 58.4272C219.418 58.4319 219.202 58.4343 219.009 58.4366C217.912 58.446 217.9 58.4695 217.717 58.8572C214.433 65.7694 211.082 72.7897 207.84 79.5822L206.322 82.761C206.179 83.0618 206.031 83.3602 205.857 83.7102L205.258 84.9226L204.938 84.3C204.844 84.1167 204.76 83.9569 204.684 83.8113C204.539 83.5364 204.414 83.2967 204.301 83.0571L202.112 78.4544C199.102 72.1272 195.989 65.5838 192.96 59.1344C192.643 58.4554 192.35 58.2698 191.609 58.2698H191.598C182.388 58.2933 173.023 58.2933 163.968 58.2933C160.979 58.2933 157.99 58.2933 155.002 58.2933C154.743 58.2933 154.485 58.3074 154.187 58.3262C154.144 58.3285 154.1 58.3309 154.055 58.3332V59.1885C154.055 60.2904 154.055 61.3923 154.055 62.4942C154.055 64.9142 154.057 67.4164 154.048 69.8764L154.039 72.4937C154.024 76.4033 154.01 80.4444 153.938 84.4221C153.895 86.6988 152.868 87.8994 150.608 88.3153C148.827 88.6418 146.861 88.811 144.765 88.8181C140.855 88.8298 136.741 88.8345 131.815 88.8345V88.1297C136.741 88.1297 140.853 88.125 144.763 88.1132C146.816 88.1062 148.74 87.9417 150.481 87.6222C152.401 87.2697 153.197 86.3393 153.233 84.4104C153.305 80.4397 153.32 76.3986 153.334 72.4937L153.343 69.874C153.352 67.4141 153.352 64.9142 153.35 62.4942C153.35 61.3923 153.35 60.2904 153.35 59.1885V57.6613L153.686 57.6448C153.848 57.6378 154.001 57.6284 154.147 57.6213C154.443 57.6049 154.722 57.5884 155.002 57.5884C157.99 57.5884 160.979 57.5884 163.968 57.5884C173.023 57.5884 182.388 57.5884 191.598 57.5649H191.609C192.624 57.5649 193.165 57.9103 193.599 58.836C196.628 65.2854 199.741 71.8264 202.751 78.1537L204.941 82.7563C205.032 82.949 205.129 83.1369 205.246 83.3625C205.41 83.0336 205.551 82.7469 205.688 82.4603L207.205 79.2814C210.445 72.4913 213.796 65.4687 217.08 58.5588C217.466 57.7482 217.917 57.7435 219.005 57.7365C219.193 57.7365 219.409 57.7341 219.653 57.7271C226.375 57.5767 232.317 57.5555 239.523 57.6566C239.723 57.6589 239.854 57.6495 239.995 57.6378C240.197 57.6213 240.406 57.6049 240.78 57.6378L241.085 57.6636L241.102 57.9714C241.109 58.0936 241.116 58.2158 241.123 58.3379C241.139 58.6034 241.158 58.8783 241.158 59.1532C241.158 62.3015 241.158 65.4499 241.158 68.5982C241.158 77.9258 241.158 87.5681 241.186 97.0531C241.186 97.4807 241.144 98.0164 240.796 98.357C240.446 98.7001 239.918 98.7377 239.398 98.7283C236.281 98.6672 233.066 98.6625 229.577 98.7165C229.075 98.7236 228.558 98.686 228.227 98.3547C227.895 98.0234 227.86 97.5065 227.865 97.093C228.02 87.0371 228.1 77.1528 228.151 69.6649C228.151 69.5122 228.182 69.3548 228.21 69.1997C228.252 68.9765 228.299 68.7227 228.222 68.6123C228.168 68.5324 228.024 68.4925 227.914 68.4737C227.125 68.328 226.577 68.4197 226.117 69.3125C223.288 74.8127 220.377 80.3857 217.564 85.7778C215.584 89.5723 213.535 93.4959 211.533 97.3609C210.925 98.5356 210.192 98.5403 208.728 98.5497C208.54 98.5497 208.336 98.5521 208.112 98.5568C207.753 98.5638 207.417 98.5708 207.086 98.5755C205.667 98.6061 204.325 98.6319 201.856 98.5755C201.64 98.5708 201.444 98.5685 201.268 98.5685C200.218 98.5615 199.638 98.5568 199.173 97.6569C196.854 93.1928 194.528 88.7335 192.202 84.2718C189.648 79.3754 187.007 74.3122 184.42 69.3266C184.049 68.6123 183.703 68.4009 182.937 68.4032C179.174 68.4408 175.346 68.4337 171.646 68.429C170.339 68.429 169.031 68.4244 167.724 68.4244H166.782V69.3336C166.782 70.7856 166.787 72.2376 166.789 73.6896C166.799 77.282 166.808 80.9989 166.756 84.6547C166.735 86.1396 166.655 88.3622 166.204 90.5144C165.217 95.2275 162.187 97.9459 157.201 98.5967C153.829 99.0361 150.601 99.2687 147.606 99.2875C142.864 99.3156 137.78 99.3321 131.605 99.3344H131.61Z" fill="#9DA4AE"/>
<path d="M92.1684 57.9316C92.643 57.9316 93.0189 57.9316 93.3948 57.9316C100.027 57.934 106.66 57.9551 113.293 57.9175C114.209 57.9128 114.721 58.2159 115.229 58.9208C118.941 64.0803 122.707 69.2022 126.431 74.3523C126.838 74.9139 127.242 75.1911 127.998 75.1794C131.156 75.1324 134.314 75.1606 137.57 75.1606V58.0162H150.389C150.413 58.4156 150.453 58.7728 150.453 59.1275C150.455 67.0595 150.455 74.9914 150.45 82.9233C150.45 85.0073 150.422 85.0849 148.34 85.2869C147.534 85.3644 146.726 85.4044 145.916 85.4044C137.267 85.4161 128.616 85.4044 119.968 85.442C119.108 85.4467 118.596 85.1953 118.1 84.5116C114.345 79.3356 110.534 74.202 106.775 69.0307C106.287 68.3587 105.786 68.0627 104.898 68.3658V98.8906H92.166V57.934L92.1684 57.9316Z" fill="#274EA2"/>
<path d="M105.253 99.2405H91.8164V57.579H93.3976C94.9906 57.579 96.5812 57.579 98.1742 57.5837C103.129 57.5884 108.254 57.5955 113.293 57.5649C113.303 57.5649 113.31 57.5649 113.319 57.5649C114.306 57.5649 114.924 57.8892 115.518 58.7139C117.612 61.6225 119.757 64.5688 121.834 67.4188C123.464 69.6578 125.097 71.8993 126.721 74.1454C127.101 74.6693 127.409 74.8385 127.996 74.8268C130.306 74.7915 132.569 74.7962 134.963 74.8033C135.712 74.8033 136.464 74.8056 137.221 74.808V57.6636H150.726L150.744 57.9949C150.751 58.1241 150.761 58.2463 150.77 58.3685C150.789 58.6293 150.808 58.876 150.808 59.1274C150.81 67.0593 150.81 74.9912 150.805 82.9231C150.805 85.2163 150.622 85.4207 148.378 85.6368C147.57 85.7144 146.743 85.7543 145.921 85.7566C142.975 85.7613 140.028 85.7614 137.082 85.7637C131.474 85.7661 125.677 85.7684 119.975 85.7919H119.956C118.993 85.7919 118.375 85.4794 117.821 84.7158C115.875 82.0327 113.881 79.3167 111.952 76.6899C110.159 74.2488 108.308 71.7254 106.496 69.2349C106.094 68.6828 105.77 68.5136 105.256 68.6288V99.2405H105.253ZM92.5213 98.5356H104.548V68.1119L104.788 68.0296C105.991 67.6208 106.614 68.1988 107.065 68.8214C108.874 71.3119 110.725 73.8329 112.518 76.274C114.447 78.9031 116.444 81.6192 118.389 84.3047C118.817 84.8944 119.216 85.0894 119.971 85.0894C125.675 85.0659 131.474 85.0636 137.082 85.0612C140.028 85.0612 142.975 85.0588 145.921 85.0541C146.72 85.0541 147.526 85.0142 148.313 84.939C149.189 84.8544 149.734 84.7887 149.915 84.5819C150.094 84.3775 150.103 83.8465 150.103 82.9255C150.11 74.9936 150.108 67.0616 150.105 59.1297C150.105 58.9018 150.089 58.6692 150.07 58.4225C150.07 58.4061 150.068 58.3873 150.065 58.3708H137.928V75.5152H137.575C136.699 75.5152 135.827 75.5152 134.963 75.5105C132.571 75.5058 130.313 75.5011 128.008 75.534C127.2 75.5457 126.66 75.2638 126.15 74.5589C124.526 72.3151 122.896 70.0737 121.265 67.8346C119.188 64.9847 117.043 62.0361 114.947 59.1274C114.482 58.4813 114.059 58.2674 113.298 58.2698C108.256 58.298 103.132 58.2933 98.1742 58.2886C96.5812 58.2886 94.9906 58.2862 93.3976 58.2839H92.5236V98.5356H92.5213Z" fill="#9DA4AE"/>
<path d="M181.925 71.2837V98.2396H165.161C165.319 98.014 165.429 97.8073 165.586 97.6428C168.023 95.1053 169.249 92.0439 169.374 88.6559C169.569 83.339 169.559 78.0174 169.637 72.6981C169.644 72.2587 169.637 71.8217 169.637 71.2837H181.925Z" fill="#274EA2"/>
<path d="M182.277 98.5921H164.481L164.871 98.0376C164.921 97.9671 164.965 97.899 165.008 97.8332C165.106 97.6805 165.203 97.5348 165.33 97.4009C167.653 94.9809 168.894 92.0347 169.018 88.6443C169.157 84.8945 169.192 81.0789 169.227 77.3855C169.242 75.8207 169.258 74.2559 169.279 72.6935C169.284 72.4022 169.281 72.1108 169.279 71.7913V70.9314H182.272V98.5921H182.277ZM165.839 97.8873H181.572V71.6362H169.989V71.789C169.989 72.1132 169.991 72.4092 169.989 72.7029C169.965 74.2653 169.951 75.8301 169.937 77.3925C169.902 81.0883 169.864 84.911 169.726 88.6702C169.594 92.2367 168.288 95.338 165.839 97.8873Z" fill="#9DA4AE"/>
<path d="M164.585 52.2576L160.861 50.674L157.264 52.469L157.828 48.8719L154.773 46.4237L158.845 45.7823L160.556 42.4766L162.506 45.6789L166.617 46.083L163.751 48.7004L164.585 52.2576Z" fill="#274EA2"/>
<path d="M156.961 52.8826L157.576 48.9706L154.212 46.2758L158.692 45.5709L160.539 41.9973L162.647 45.4558L167.167 45.8999L164.012 48.7803L164.919 52.6547L160.868 50.9325L156.961 52.8802V52.8826ZM155.335 46.5718L158.082 48.7733L157.565 52.0555L160.852 50.4156L164.249 51.8605L163.49 48.6206L166.07 46.264L162.367 45.8999L160.572 42.9536L159 45.9962L155.335 46.5718Z" fill="#9DA4AE"/>
<path d="M137.645 113.653L136.532 117.005H135.099L138.743 106.348H140.413L144.074 117.005H142.594L141.447 113.653H137.643H137.645ZM141.163 112.576L140.112 109.508C139.873 108.813 139.715 108.181 139.556 107.563H139.523C139.363 108.195 139.189 108.843 138.982 109.492L137.932 112.574H141.163V112.576Z" fill="#161616"/>
<path d="M145.65 106.345H147.034V115.849H151.618V117.003H145.65V106.345Z" fill="#161616"/>
<path d="M153.164 106.489C153.864 106.345 154.867 106.268 155.821 106.268C157.302 106.268 158.255 106.536 158.925 107.137C159.465 107.612 159.769 108.34 159.769 109.162C159.769 110.57 158.878 111.503 157.748 111.883V111.93C158.575 112.214 159.068 112.973 159.324 114.08C159.675 115.567 159.928 116.594 160.151 117.005H158.718C158.544 116.704 158.305 115.788 158.002 114.458C157.685 112.987 157.111 112.433 155.854 112.386H154.55V117.003H153.166V106.486L153.164 106.489ZM154.548 111.343H155.965C157.445 111.343 158.385 110.537 158.385 109.317C158.385 107.941 157.381 107.342 155.918 107.325C155.25 107.325 154.771 107.389 154.548 107.452V111.343Z" fill="#161616"/>
<path d="M167.28 112.008H163.109V115.852H167.757V117.005H161.726V106.348H167.517V107.502H163.109V110.871H167.28V112.01V112.008Z" fill="#161616"/>
<path d="M178.596 112.323C178.516 110.835 178.419 109.05 178.436 107.72H178.389C178.022 108.97 177.576 110.297 177.036 111.768L175.142 116.939H174.092L172.358 111.862C171.848 110.361 171.418 108.984 171.117 107.72H171.084C171.051 109.047 170.974 110.835 170.878 112.433L170.591 117.003H169.271L170.018 106.345H171.784L173.615 111.5C174.061 112.814 174.425 113.984 174.698 115.09H174.745C175.015 114.014 175.398 112.844 175.875 111.5L177.785 106.345H179.552L180.219 117.003H178.866L178.596 112.323Z" fill="#161616"/>
<path d="M183.929 113.653L182.815 117.005H181.382L185.026 106.348H186.696L190.357 117.005H188.877L187.73 113.653H183.926H183.929ZM187.446 112.576L186.396 109.508C186.156 108.813 185.999 108.181 185.839 107.563H185.806C185.646 108.195 185.472 108.843 185.266 109.492L184.215 112.574H187.446V112.576Z" fill="#161616"/>
<path d="M191.934 106.345H193.317V115.849H197.901V117.003H191.934V106.345Z" fill="#161616"/>
</g>
<defs>
<clipPath id="clip0_4036_7283">
<rect width="333" height="159" fill="white"/>
</clipPath>
</defs>
</svg>
