<svg width="178" height="178" viewBox="0 0 178 178" fill="none" xmlns="http://www.w3.org/2000/svg">
<g style="mix-blend-mode:luminosity">
<path d="M88.6666 25.9666C53.6893 25.9666 25.3333 54.0853 25.3333 88.7673C25.3333 123.451 53.6893 151.57 88.6666 151.57C123.644 151.57 152 123.451 152 88.7673C152 54.0871 123.644 25.9666 88.6666 25.9666ZM147.881 88.7673C147.881 121.195 121.371 147.485 88.6666 147.485C55.9623 147.485 29.4524 121.195 29.4524 88.7673C29.4524 56.3412 55.9641 30.05 88.6666 30.05C121.369 30.05 147.881 56.3412 147.881 88.7673Z" fill="#262626"/>
<path d="M119.362 62.1229C120.221 63.0392 121.462 64.517 122.158 65.4141L134.983 57.3417C134.342 56.511 133.32 55.2484 132.559 54.3582L124.436 59.6833L123.882 60.1555L124.295 59.5574L127.882 52.4608L125.344 49.9461L118.184 53.5013L117.582 53.9106L118.062 53.3614L123.434 45.3118C122.489 44.5143 121.581 43.7833 120.424 42.8984L112.282 55.6034C113.314 56.3903 114.674 57.5445 115.54 58.3315L123.204 54.388L123.694 54.0295L123.334 54.5174L119.362 62.1229ZM90.2604 46.02L93.7653 38.2379L93.9875 37.5471L93.9245 38.2659L94.292 48.6677C95.5221 48.7831 96.7925 48.9527 98.0436 49.1591L97.4732 33.754C95.7233 33.5617 93.9805 33.4253 92.2377 33.3518L88.7853 41.8474L88.6628 42.4787L88.5403 41.8492L85.0931 33.3518C83.3485 33.4253 81.6057 33.5617 79.8559 33.754L79.2872 49.1608C80.5383 48.951 81.8069 48.7866 83.0371 48.6677L83.4045 38.2659L83.3415 37.5471L83.5655 38.2362L87.0687 46.02H90.2604ZM61.9184 58.2983C63.9447 56.1822 65.0908 53.7374 63.0663 51.4045C61.9639 50.1384 60.1125 49.8604 58.5779 50.4847L58.4257 50.5441L58.4747 50.4112C58.7022 49.8097 58.8474 47.8895 57.1973 46.5639C56.3924 45.9168 55.3845 45.6773 54.3626 45.7804C52.4605 45.9728 50.9977 47.2617 47.0133 51.6669C45.8094 52.9959 44.0596 55.0945 43.0097 56.4515L53.9531 66.7467C57.5805 62.7664 59.0591 61.2852 61.9184 58.2983ZM47.6398 55.78C49.841 53.1061 52.1841 50.6805 53.2462 49.7205C53.5822 49.4179 53.9461 49.1154 54.3888 48.9965C55.108 48.8006 55.85 49.3077 56.0162 50.0387C56.1842 50.7732 55.7187 51.471 55.2008 52.0463C54.0354 53.3509 49.7605 57.7841 49.7605 57.7841L47.638 55.78H47.6398ZM51.9251 59.8127C51.9251 59.8127 56.0879 55.4477 57.4475 54.0522C57.9865 53.4978 58.333 53.1603 58.7057 52.9802C59.1851 52.7476 59.7101 52.7004 60.1808 53.0099C60.641 53.3177 60.8545 53.8441 60.739 54.3687C60.6007 54.9931 60.0863 55.5876 59.6628 56.0423L54.1439 61.899L51.9251 59.8127Z" fill="#262626"/>
<path d="M126.225 88.7673H88.6666V51.5251C109.423 51.5251 126.225 68.1858 126.225 88.7673ZM88.6666 88.7673V126.01C67.9101 126.01 51.1082 109.349 51.1082 88.7673H88.6666Z" fill="white"/>
<path d="M88.6666 51.5251V88.7673H51.1082C51.1082 68.1858 67.9101 51.5251 88.6666 51.5251ZM126.225 88.7673C126.225 109.351 109.423 126.01 88.6666 126.01V88.7673H126.225Z" fill="#0066B1"/>
</g>
</svg>
