<svg width="178" height="178" viewBox="0 0 178 178" fill="none" xmlns="http://www.w3.org/2000/svg">
<g style="mix-blend-mode:luminosity">
<path d="M124.618 38.6499L121.159 43.7332C143.913 52.992 153.015 70.0573 153.015 88.0304C153.015 97.1076 150.649 105.277 145.734 105.277H86.3905C78.199 105.277 75.8325 102.372 79.4732 95.1106C86.0264 82.584 105.504 58.0753 117.518 43.1886C119.339 41.01 120.795 37.5607 114.424 35.9267C108.053 34.2928 97.4946 33.5667 88.7569 33.5667C43.9765 33.5667 12.6667 57.7122 12.6667 88.9381C12.6667 117.622 39.7898 144.31 88.5749 144.31C110.237 144.31 136.632 138.319 151.559 121.253H138.634C124.072 134.506 104.958 137.411 88.5749 137.411C49.2555 137.411 24.3169 117.078 24.3169 88.9381C24.3169 62.9771 52.5322 39.5577 88.2108 39.5577C92.3976 39.5577 93.8539 40.4654 89.303 46.0933C80.2013 57.3491 64.0003 79.6793 56.3549 92.7505C48.1633 106.73 56.5369 118.167 74.9223 118.167H149.374C153.925 118.167 156.656 115.625 159.204 110.724C161.389 106.911 164.665 99.2862 164.665 88.7565C164.847 67.6972 149.01 48.2719 124.618 38.6499Z" fill="black"/>
</g>
</svg>
