<svg width="178" height="178" viewBox="0 0 178 178" fill="none" xmlns="http://www.w3.org/2000/svg">
<g style="mix-blend-mode:luminosity" clip-path="url(#clip0_9105_3747)">
<path d="M145.964 78.4912C146.093 78.2696 145.957 78.1033 145.674 78.1033C144.202 78.1033 142.275 78.1093 140.748 78.1093C140.385 78.1093 140.194 78.1525 140.022 78.4912C139.456 79.575 132.566 89.9009 131.285 91.9021C131.07 92.21 130.805 92.1668 130.774 91.8159C130.645 90.6275 129.617 89.2543 127.997 88.6017C126.766 88.1029 125.553 88.0105 124.303 88.1768C122.037 88.4784 120.018 89.6792 118.245 91.0214C115.573 93.0534 113.264 95.6888 110.284 97.6408C108.658 98.6997 106.43 99.6234 104.939 98.2442C103.591 96.9942 103.745 94.2172 105.808 92.0683C106.023 91.8405 106.288 92.0313 106.245 92.2346C106.048 93.2075 106.288 94.1742 107.027 94.8514C107.926 95.658 109.212 95.7504 110.315 95.2085C111.614 94.5621 112.377 93.3183 112.605 91.9081C112.95 89.7162 111.263 87.7826 109.151 87.6288C107.433 87.5055 105.789 88.1029 104.188 89.4267C103.388 90.0917 102.926 90.5843 102.237 91.5756C102.07 91.8159 101.806 91.8405 101.818 91.4834C101.898 88.6755 100.74 87.0992 98.4193 87.0438C96.6215 87.0008 94.6942 87.9797 93.1981 89.1743C91.5543 90.4921 90.1196 92.2468 88.5804 93.8909C88.3896 94.0941 88.2234 94.0817 88.168 93.6876C88.1188 91.828 87.6568 90.0301 86.7948 88.7493C86.4932 88.306 85.8528 88.0843 85.3111 88.3862C85.0648 88.5217 84.1966 88.9218 83.5687 89.4267C83.2546 89.6854 83.1376 90.0547 83.273 90.5351C84.1042 93.3121 83.9196 96.4709 82.7929 99.1371C81.7585 101.581 79.7452 103.786 77.3809 104.531C75.8231 105.023 74.2039 104.783 73.2003 103.404C71.8274 101.501 72.3815 98.1826 74.4318 95.4363C76.2418 93.0164 78.8586 91.4771 81.4692 90.4859C81.7769 90.3688 81.8385 90.1718 81.7523 89.9071C81.6106 89.4759 81.383 88.891 81.2906 88.6263C81.0505 87.9921 80.3794 87.8875 79.5606 87.9735C77.6641 88.1952 75.9525 88.8418 74.2593 89.7468C69.8325 92.1175 67.616 96.7047 66.6432 99.1617C66.1753 100.344 65.775 101.077 65.2579 101.729C64.5621 102.603 63.6817 103.404 62.0807 104.814C61.9331 104.943 61.8283 105.214 61.9515 105.461C62.1177 105.799 62.9489 106.975 63.183 107.08C63.4414 107.209 63.7493 107.031 63.8663 106.945C64.9868 106.187 66.3291 104.98 66.9879 104.161C67.2157 103.884 67.4558 104.001 67.579 104.426C68.1947 106.612 69.7955 108.398 72.012 109.143C76.0693 110.51 80.2807 108.527 83.4579 105.079C85.4773 102.887 86.2039 101.477 86.9797 100.516C88.291 98.8906 90.877 95.2517 93.9617 92.918C95.0946 92.0559 96.4307 91.4033 97.1016 91.8343C97.6435 92.1852 97.816 92.998 96.9478 94.5743C93.8076 100.313 89.1838 107.055 88.3342 108.693C88.1801 108.976 88.3156 109.198 88.6113 109.198C90.255 109.192 91.8868 109.192 93.3768 109.192C93.623 109.18 93.7338 109.069 93.8631 108.89C96.2766 105.116 98.5423 101.52 100.975 97.8071C101.11 97.5854 101.233 97.7576 101.239 97.8563C101.288 98.7183 101.504 99.9005 102.015 100.67C102.932 102.099 104.238 102.714 105.685 102.727C106.836 102.739 107.415 102.567 108.658 102.105C109.668 101.729 110.481 101.237 111.096 100.793C111.46 100.541 111.521 100.966 111.515 101.027C110.955 104.026 111.644 107.573 114.624 109.05C118.189 110.805 122.105 108.336 124.359 106.107C124.58 105.892 124.814 105.916 124.839 106.378C124.888 107.228 125.27 108.238 125.978 108.946C127.868 110.842 131.673 110.091 135.497 107.129C137.953 105.233 140.521 102.554 142.842 99.7218C142.928 99.611 142.99 99.4388 142.823 99.2601C142.472 98.8906 141.961 98.4659 141.611 98.1396C141.45 98.0039 141.216 98.0409 141.081 98.1455C138.704 100.405 136.562 102.985 133.465 105.122C132.424 105.848 130.756 106.44 130.011 105.43C129.721 105.036 129.752 104.494 130.041 103.78C130.94 101.526 145.225 79.7718 145.964 78.4912ZM127.086 96.7293C127.117 96.8956 127.332 97.0558 127.548 97.1359C127.622 97.1605 127.665 97.2159 127.579 97.3943C126.969 98.6937 126.415 99.4447 125.652 100.578C124.95 101.625 124.162 102.437 123.207 103.219C121.767 104.414 119.765 105.707 118.109 104.839C117.377 104.457 117.056 103.429 117.069 102.598C117.106 100.258 118.146 97.8501 120.067 95.4918C122.413 92.6039 125.005 91.1076 126.704 91.9267C128.465 92.7641 127.905 94.8022 127.117 96.403C127.055 96.5263 127.049 96.6309 127.086 96.7293ZM42.3538 109.112C37.0282 109.149 32.3365 105.855 31.7945 100.159C31.4929 97.0004 32.3857 94.1864 34.1773 91.8713C35.7596 89.8084 38.4441 88.0905 40.716 87.6718C41.455 87.5364 42.4462 87.6226 42.8587 88.1091C43.5052 88.8602 43.3144 89.6792 42.6741 90.0117C40.9438 90.8984 38.8568 92.413 37.8223 94.4759C36.9849 96.163 36.8187 98.201 38.0932 100.135C40.2297 103.367 46.1959 103.453 51.7371 98.2996C53.1101 97.0372 54.3353 95.8305 55.5852 94.3958C58.0296 91.6064 58.836 90.5843 62.0869 86.0833C62.1239 86.0339 62.1361 85.9601 62.1177 85.9293C62.0931 85.8739 62.0439 85.8555 61.9515 85.8493C59.7842 85.9109 57.8939 86.5575 56.0593 87.9305C55.5298 88.3184 54.7724 88.263 54.4338 87.7518C54.0645 87.1793 54.3291 86.428 54.9387 86.0093C57.8939 83.9529 61.1203 83.5834 64.4143 83.0292C64.4143 83.0292 64.6421 83.0414 64.833 82.7891C66.1875 81.0526 67.2095 79.4888 68.6502 77.7338C70.1034 75.9543 71.9812 74.3164 73.4157 73.0911C75.4168 71.3671 76.6975 70.7883 78.0028 70.0802C78.3475 69.9016 77.9596 69.6861 77.855 69.6861C70.5713 68.3191 63.0043 66.5458 55.7699 69.2243C50.7643 71.0961 48.5662 75.0677 49.6253 77.7215C50.3764 79.6056 52.8514 79.9075 55.1727 78.7743C57.0998 77.8323 58.8792 76.3114 60.1413 74.3534C60.8494 73.2697 62.3394 74.0517 61.5328 75.9359C59.4149 80.911 55.3698 84.858 50.444 85.0242C46.2513 85.1596 43.5482 82.0747 43.5545 78.2696C43.5728 70.7636 51.928 65.8254 60.7016 65.0804C71.2733 64.206 81.2844 67.0199 91.782 68.2945C99.823 69.2674 107.538 69.292 115.616 67.4325C116.57 67.2231 117.241 67.8327 117.18 68.7994C117.1 70.1971 116.022 71.5395 113.356 72.9926C110.327 74.6551 107.162 75.1539 103.85 75.1846C95.8517 75.2524 88.3958 72.1306 80.6872 70.4558C80.6994 70.7944 80.7856 71.1946 80.5024 71.4102C76.2296 74.5627 72.3691 77.7584 69.7831 82.2534C69.6969 82.358 69.7463 82.4566 69.8939 82.4442C72.1412 82.3272 74.1607 82.2656 76.2542 82.0993C76.6175 82.0687 76.6359 81.9763 76.5989 81.7114C76.4142 80.1597 76.8637 78.3988 78.2304 77.1796C79.622 75.9297 81.3706 75.7881 82.528 76.6871C83.8457 77.7153 83.7287 79.5564 83.0084 80.9418C82.2756 82.3458 81.0689 83.0968 79.9052 83.4601C79.9052 83.4601 79.6652 83.5155 79.696 83.7372C79.7452 84.0943 81.3276 84.9688 81.463 85.2027C81.5922 85.4243 81.5246 85.7692 81.2843 86.0339C81.1181 86.225 80.8535 86.4034 80.521 86.3972C80.2501 86.3912 80.0839 86.2988 79.739 86.1079C79.0311 85.72 78.1444 85.0918 77.5471 84.3468C77.3438 84.0943 77.2454 84.0883 76.7405 84.1191C74.4748 84.2484 70.9346 84.5931 68.5394 84.8888C67.9607 84.9626 67.8745 85.0672 67.7514 85.2705C63.928 91.5696 59.852 98.3672 55.3758 102.911C50.5857 107.794 46.5897 109.081 42.3538 109.112ZM78.76 81.1142C78.8216 81.4405 78.9448 81.5021 79.0924 81.4713C79.819 81.3235 80.6194 80.7263 81.0873 80.0367C81.5184 79.4087 81.7215 78.4972 81.2906 78.1341C80.9089 77.8077 80.2931 77.9001 79.8314 78.3064C78.9202 79.113 78.6432 80.2584 78.76 81.1142ZM88.6667 55.7334C39.4539 55.7334 0 70.4866 0 88.9834C0 107.369 39.774 122.233 88.6667 122.233C137.559 122.233 177.333 107.32 177.333 88.9834C177.333 70.6528 137.559 55.7334 88.6667 55.7334ZM88.6667 119.709C41.4179 119.709 2.99845 105.996 2.99845 89.2235C2.99845 72.4508 41.4179 58.2826 88.6667 58.2826C135.915 58.2826 174.347 72.4446 174.347 89.2235C174.347 105.996 135.915 119.709 88.6667 119.709Z" fill="#00095B"/>
</g>
<defs>
<clipPath id="clip0_9105_3747">
<rect width="177.333" height="177.333" fill="white"/>
</clipPath>
</defs>
</svg>
