<svg width="178" height="178" viewBox="0 0 178 178" fill="none" xmlns="http://www.w3.org/2000/svg">
<g style="mix-blend-mode:luminosity">
<path d="M143.469 56.9407C137.931 47.32 129.936 39.3101 120.289 33.7167C110.686 28.1232 99.7433 25.2146 88.622 25.2146C77.5007 25.2146 66.6027 28.1232 57 33.7167C47.3526 39.2654 39.3578 47.2752 33.8195 56.9407C28.2812 66.5615 25.3333 77.5247 25.3333 88.6668C25.3333 99.809 28.2365 110.727 33.8195 120.393C39.3578 130.014 47.3526 138.024 57 143.617C66.6027 149.166 77.5454 152.119 88.6667 152.119C99.788 152.119 110.686 149.21 120.333 143.617C129.936 138.068 137.931 130.058 143.514 120.393C149.052 110.772 152 99.809 152 88.6668C152 77.5247 149.008 66.5615 143.469 56.9407ZM31.6756 88.6221C31.6756 78.5986 34.3108 68.7541 39.3131 60.0731C44.3155 51.4368 51.5064 44.2324 60.1711 39.2206C68.3 34.5221 77.5007 31.882 86.8801 31.6135L79.5999 83.3866L38.4645 115.605C33.9981 107.327 31.6756 98.0639 31.6756 88.6221ZM117.118 138.068C108.453 143.08 98.6267 145.72 88.622 145.72C78.6173 145.72 68.7913 143.08 60.1265 138.068C51.9977 133.37 45.1194 126.702 40.2064 118.693L88.622 99.0931L137.038 118.693C132.125 126.702 125.291 133.37 117.118 138.068ZM138.869 115.605L97.6888 83.3866L90.4086 31.5688C99.788 31.882 108.944 34.4774 117.118 39.1759C125.782 44.1876 132.973 51.392 137.976 60.0731C142.978 68.7541 145.613 78.5986 145.613 88.6221C145.613 98.0639 143.291 107.327 138.869 115.605Z" fill="#00AFEF"/>
</g>
</svg>
