<svg width="178" height="178" viewBox="0 0 178 178" fill="none" xmlns="http://www.w3.org/2000/svg">
<g style="mix-blend-mode:luminosity">
<path d="M43.2996 72.5844C49.8915 53.4435 68.116 40.5104 88.667 40.5104C109.218 40.5104 127.443 53.4435 134.034 72.5844V72.7137H148.511V71.0324L142.565 70.3857C138.817 69.9977 138.041 68.3165 137.007 66.2472L136.749 65.7298C128.089 47.3649 109.218 35.4666 88.667 35.4666C68.116 35.4666 49.2452 47.3649 40.4561 65.7298L40.1976 66.2472C39.2928 68.3165 38.3881 69.9977 34.769 70.3857L28.6942 71.0324V72.7137H43.1704L43.2996 72.5844Z" fill="#EB0A1E"/>
<path d="M134.164 104.529V104.658C127.443 123.799 109.218 136.732 88.667 136.732C68.116 136.732 49.8915 123.799 43.2997 104.658V104.529H28.6942V106.21L34.769 106.857C38.5173 107.245 39.2928 108.926 40.3269 110.996L40.5854 111.513C49.116 129.878 68.116 141.776 88.667 141.776C109.218 141.776 128.089 129.878 136.878 111.513L137.136 110.996C138.17 108.926 138.946 107.374 142.694 106.857L148.769 106.21V104.529H134.164Z" fill="#EB0A1E"/>
<path d="M54.6735 81.896H51.313V96.6397H54.6735V81.896Z" fill="#EB0A1E"/>
<path d="M43.4286 96.5103V81.896H40.1973V92.8891L29.4694 81.896H25.3333V96.5103H28.5646V85.5172L39.4218 96.5103H43.4286Z" fill="#EB0A1E"/>
<path d="M116.973 81.896L107.925 96.6397H111.803L113.354 94.053H123.823L125.374 96.6397H129.252L120.204 81.896H116.973ZM122.272 91.2078H115.034L118.653 85.2586L122.272 91.2078Z" fill="#EB0A1E"/>
<path d="M98.7484 93.5359C98.6191 93.5359 98.2314 93.5359 98.1021 93.5359H84.5307V96.5105H98.2314C98.3606 96.5105 99.1361 96.5105 99.2654 96.5105C102.109 96.2518 103.272 94.0532 103.272 91.9839C103.272 89.9147 101.98 87.8454 99.3946 87.5867C99.0069 87.5867 98.6191 87.5867 98.3606 87.5867H89.4423C89.0545 87.5867 88.796 87.5867 88.4082 87.4574C87.762 87.3281 87.3742 86.8107 87.5035 86.1641C87.5035 85.5174 87.8912 85.0001 88.5375 84.8708C88.796 84.7414 89.1838 84.7414 89.4423 84.7414H102.367V81.7668H89.313C88.9253 81.7668 88.4083 81.7668 88.0205 81.8962C85.8232 82.1548 84.1429 83.9655 84.1429 86.1641C84.1429 87.9747 85.3062 90.1733 87.8912 90.432C88.4083 90.432 88.796 90.5613 89.313 90.432H97.9729C98.1021 90.432 98.4899 90.432 98.6191 90.432C99.3946 90.5613 99.9117 91.208 99.9117 91.8546C99.9117 92.7599 99.3946 93.4066 98.7484 93.5359Z" fill="#EB0A1E"/>
<path d="M74.9663 93.5357C74.8371 93.5357 74.4493 93.5357 74.3201 93.5357H60.8779V96.5103H74.4493C74.5786 96.5103 75.3541 96.5103 75.4833 96.5103C78.3269 96.2517 79.6194 94.053 79.6194 92.1131C79.6194 90.1731 78.3269 87.9745 75.7418 87.7159C75.3541 87.7159 74.9663 87.7159 74.7078 87.7159H65.7894C65.4017 87.7159 65.1432 87.7159 64.7554 87.5865C64.1092 87.4572 63.7214 86.9399 63.8507 86.2932C63.8507 85.6466 64.2384 85.1293 64.8847 84.9999C65.1432 84.8706 65.5309 84.8706 65.7894 84.8706H78.7146V81.896H65.5309C65.1432 81.896 64.6262 81.896 64.2384 82.0253C62.0411 82.284 60.3609 84.0946 60.3609 86.2932C60.3609 88.1039 61.5241 90.3025 64.1092 90.5611C64.6262 90.5611 65.0139 90.6905 65.5309 90.5611H74.1908C74.3201 90.5611 74.7078 90.5611 74.8371 90.5611C75.6126 90.6905 76.1296 91.3371 76.1296 91.9838C76.2588 92.7597 75.6126 93.4064 74.9663 93.5357Z" fill="#EB0A1E"/>
<path d="M152 96.5103V81.896H148.769V92.8891L138.041 81.896H133.905V96.5103H137.136V85.5172L147.993 96.5103H152Z" fill="#EB0A1E"/>
<path d="M143.599 132.852C145.15 132.852 146.442 134.145 146.442 135.697C146.442 137.249 145.15 138.543 143.599 138.543C142.048 138.543 140.755 137.249 140.755 135.697C140.755 134.921 141.014 134.275 141.66 133.628C142.048 133.111 142.823 132.723 143.599 132.852ZM143.599 137.896C144.245 137.896 144.762 137.637 145.15 137.249C145.538 136.861 145.796 136.215 145.796 135.697C145.796 134.533 144.762 133.499 143.599 133.628C142.436 133.628 141.402 134.663 141.402 135.827C141.402 136.861 142.306 137.896 143.599 137.896ZM142.436 137.12V134.275C142.823 134.275 143.082 134.145 143.47 134.145C143.987 134.145 144.762 134.275 144.762 134.921C144.762 135.309 144.504 135.568 144.116 135.568C144.374 135.697 144.504 135.956 144.633 136.215C144.633 136.473 144.762 136.732 144.891 136.861H144.245C144.116 136.603 144.116 136.344 143.987 136.215C143.857 135.827 143.599 135.827 143.082 135.827V136.991L142.436 137.12ZM143.082 135.439C143.599 135.439 144.116 135.439 144.116 135.051C144.116 134.792 143.987 134.663 143.47 134.663C143.34 134.663 143.211 134.663 143.082 134.663V135.439Z" fill="#EB0A1E"/>
</g>
</svg>
