<svg width="178" height="178" viewBox="0 0 178 178" fill="none" xmlns="http://www.w3.org/2000/svg">
<g style="mix-blend-mode:luminosity">
<path d="M88.6666 127.849C130.62 127.849 164.667 110.373 164.667 88.9413C164.667 67.5101 130.747 50.0334 88.6666 50.0334C46.7136 50.0334 12.6666 67.5101 12.6666 88.9413C12.6666 110.373 46.5861 127.849 88.6666 127.849ZM102.949 108.714C101.673 111.648 99.5056 117.771 94.5324 120.45C93.0022 121.216 91.217 121.598 89.4317 121.598C89.0492 121.598 88.7941 121.598 88.6666 121.598C75.7874 121.726 63.0358 119.94 50.6666 116.368L50.2841 116.241C49.2639 115.858 48.7539 115.475 48.7539 114.837C48.7539 114.582 48.8814 114.327 48.8814 114.2C49.0089 113.944 49.1364 113.817 49.2639 113.689L49.9015 113.051C52.3243 110.883 59.9754 105.397 74.3848 100.04C80.2505 97.6158 86.2438 95.8299 92.3646 94.2991C96.3176 93.4061 110.6 91.2375 102.949 108.714ZM141.459 69.5512C141.586 69.296 141.714 69.0409 141.969 68.9133C142.224 68.7858 142.479 68.6582 142.734 68.6582C143.244 68.6582 143.881 68.7858 144.264 69.1685C153.19 74.6538 158.546 81.5424 158.546 88.9413C158.546 102.336 141.331 113.944 116.593 118.919C115.063 119.302 113.915 119.175 113.66 118.919C113.277 118.664 113.277 118.282 113.66 117.771C113.787 117.389 114.042 117.134 114.298 116.878C127.687 101.06 138.016 77.7154 140.821 70.9544C141.076 70.3166 141.204 69.8063 141.459 69.5512ZM74.6398 69.0409C75.9149 66.1069 78.0827 59.8561 83.0559 57.3047C84.5861 56.5393 86.3713 56.1567 88.1566 56.1567C88.5391 56.1567 88.7941 56.1567 88.9217 56.1567C101.801 56.0291 114.553 57.815 126.922 61.3869L127.304 61.5145C128.324 61.8972 128.834 62.2799 128.834 62.9177C128.834 63.1728 128.707 63.428 128.707 63.5555C128.579 63.8107 128.452 63.9382 128.324 64.0658L127.432 64.8312C125.009 66.9998 117.485 72.4852 103.076 77.9706C97.2103 80.3943 91.217 82.3078 85.0962 83.7111C81.3982 84.4765 67.1163 86.6451 74.6398 69.0409ZM60.868 58.9631C62.5257 58.708 63.5458 58.708 63.9284 58.9631C64.0559 59.0907 64.0559 59.3458 64.0559 59.601C64.0559 59.8561 63.9284 59.9837 63.9284 60.2388C63.6733 60.6215 63.5458 60.8766 63.2908 61.1318C49.774 76.95 39.4451 100.295 36.6398 107.056C36.3847 107.566 36.2572 107.949 36.0022 108.331C35.8747 108.587 35.7472 108.842 35.4921 108.969C35.2371 109.097 34.9821 109.224 34.727 109.224C34.217 109.224 33.5794 109.097 33.1968 108.714C24.2707 103.229 18.9149 96.3402 18.9149 88.9413C18.9149 75.5468 36.1297 64.0658 60.868 58.9631Z" fill="#003468"/>
</g>
</svg>
