<svg width="178" height="178" viewBox="0 0 178 178" fill="none" xmlns="http://www.w3.org/2000/svg">
<g style="mix-blend-mode:luminosity">
<path d="M122.465 44.7099C113.061 41.6861 101.354 39.8999 88.671 39.8999C75.9884 39.8999 64.2786 41.6866 54.8722 44.7099C29.8555 52.7522 12.6667 69.454 12.6667 88.756C12.6667 115.908 46.6925 137.925 88.671 137.925C130.639 137.925 164.667 115.908 164.667 88.756C164.667 69.4551 147.477 52.7587 122.465 44.7099ZM88.671 116.783C82.4062 116.783 77.2909 104.467 76.9909 88.9911C80.7578 89.3299 84.6652 89.5115 88.671 89.5115C92.6768 89.5115 96.5783 89.3299 100.349 88.9911C100.047 104.467 94.9331 116.783 88.671 116.783ZM77.78 76.8749C79.4878 66.012 83.7178 58.3171 88.671 58.3171C93.6242 58.3171 97.8483 66.012 99.5545 76.8749C96.0746 77.1894 92.4293 77.3613 88.671 77.3613C84.9128 77.3613 81.2669 77.1872 77.78 76.8749ZM106.211 76.0556C103.671 59.0051 96.7766 46.7824 88.671 46.7824C80.5654 46.7824 73.6672 59.0051 71.126 76.0556C55.6877 73.6452 44.8966 68.1602 44.8966 61.7706C44.8966 53.1602 64.4958 46.1798 88.6726 46.1798C112.849 46.1798 132.443 53.1602 132.443 61.7706C132.443 68.1602 121.652 73.6452 106.212 76.0556M23.7593 86.9547C23.7593 78.6318 26.9625 70.83 32.5523 64.1193C32.4882 64.585 32.4555 65.0544 32.4545 65.5245C32.4545 75.995 48.1815 84.8956 70.1111 88.169C70.0938 88.9597 70.0808 89.752 70.0808 90.5529C70.0808 110.022 75.4809 126.512 82.9472 132.198C49.7758 130.171 23.7593 110.693 23.7593 86.9547ZM94.3954 132.2C101.858 126.515 107.258 110.025 107.258 90.5551C107.258 89.7542 107.249 88.9619 107.232 88.1712C129.155 84.8988 144.885 75.9983 144.885 65.5266C144.884 65.0565 144.85 64.587 144.784 64.1215C150.373 70.8322 153.578 78.6329 153.578 86.9568C153.578 110.695 127.56 130.173 94.3992 132.201" fill="#EB0A1E"/>
</g>
</svg>
